<?xml version="1.0" encoding="utf-8" standalone="no"?>
<!DOCTYPE svg PUBLIC "-//W3C//DTD SVG 1.1//EN"
  "http://www.w3.org/Graphics/SVG/1.1/DTD/svg11.dtd">
<svg xmlns:xlink="http://www.w3.org/1999/xlink" width="460.8pt" height="345.6pt" viewBox="0 0 460.8 345.6" xmlns="http://www.w3.org/2000/svg" version="1.1">
 <metadata>
  <rdf:RDF xmlns:dc="http://purl.org/dc/elements/1.1/" xmlns:cc="http://creativecommons.org/ns#" xmlns:rdf="http://www.w3.org/1999/02/22-rdf-syntax-ns#">
   <cc:Work>
    <dc:type rdf:resource="http://purl.org/dc/dcmitype/StillImage"/>
    <dc:date>2022-12-28T17:24:44.602423</dc:date>
    <dc:format>image/svg+xml</dc:format>
    <dc:creator>
     <cc:Agent>
      <dc:title>Matplotlib v3.5.1, https://matplotlib.org/</dc:title>
     </cc:Agent>
    </dc:creator>
   </cc:Work>
  </rdf:RDF>
 </metadata>
 <defs>
  <style type="text/css">*{stroke-linejoin: round; stroke-linecap: butt}</style>
 </defs>
 <g id="figure_1">
  <g id="patch_1">
   <path d="M 0 345.6 
L 460.8 345.6 
L 460.8 0 
L 0 0 
z
" style="fill: #ffffff"/>
  </g>
  <g id="axes_1">
   <g id="patch_2">
    <path d="M 41.29625 319.115 
L 450 319.115 
L 450 27.555 
L 41.29625 27.555 
z
" style="fill: #ffffff"/>
   </g>
   <g id="patch_3">
    <path d="M 59.873693 319.115 
L 95.020207 319.115 
L 95.020207 58.223441 
L 59.873693 58.223441 
z
" clip-path="url(#p6656774246)" style="fill: #1f77b4"/>
   </g>
   <g id="patch_4">
    <path d="M 160.292305 319.115 
L 195.438819 319.115 
L 195.438819 123.902435 
L 160.292305 123.902435 
z
" clip-path="url(#p6656774246)" style="fill: #1f77b4"/>
   </g>
   <g id="patch_5">
    <path d="M 260.710917 319.115 
L 295.857431 319.115 
L 295.857431 191.040962 
L 260.710917 191.040962 
z
" clip-path="url(#p6656774246)" style="fill: #1f77b4"/>
   </g>
   <g id="patch_6">
    <path d="M 361.129529 319.115 
L 396.276043 319.115 
L 396.276043 157.836582 
L 361.129529 157.836582 
z
" clip-path="url(#p6656774246)" style="fill: #1f77b4"/>
   </g>
   <g id="patch_7">
    <path d="M 95.020207 319.115 
L 130.166721 319.115 
L 130.166721 41.43881 
L 95.020207 41.43881 
z
" clip-path="url(#p6656774246)" style="fill: #ff7f0e"/>
   </g>
   <g id="patch_8">
    <path d="M 195.438819 319.115 
L 230.585333 319.115 
L 230.585333 53.115075 
L 195.438819 53.115075 
z
" clip-path="url(#p6656774246)" style="fill: #ff7f0e"/>
   </g>
   <g id="patch_9">
    <path d="M 295.857431 319.115 
L 331.003945 319.115 
L 331.003945 153.093099 
L 295.857431 153.093099 
z
" clip-path="url(#p6656774246)" style="fill: #ff7f0e"/>
   </g>
   <g id="patch_10">
    <path d="M 396.276043 319.115 
L 431.422557 319.115 
L 431.422557 145.43055 
L 396.276043 145.43055 
z
" clip-path="url(#p6656774246)" style="fill: #ff7f0e"/>
   </g>
   <g id="matplotlib.axis_1">
    <g id="xtick_1">
     <g id="line2d_1">
      <defs>
       <path id="m6388be26d4" d="M 0 0 
L 0 3.5 
" style="stroke: #000000; stroke-width: 0.8"/>
      </defs>
      <g>
       <use xlink:href="#m6388be26d4" x="95.020207" y="319.115" style="stroke: #000000; stroke-width: 0.8"/>
      </g>
     </g>
     <g id="text_1">
      <!-- write -->
      <g transform="translate(82.520207 332.99)scale(0.1 -0.1)">
       <defs>
        <path id="SimHei-77" d="M 3075 2925 
L 2450 75 
L 1975 75 
L 1575 2250 
L 1525 2250 
L 1125 75 
L 650 75 
L 25 2925 
L 550 2925 
L 875 1050 
L 925 1050 
L 1275 2925 
L 1825 2925 
L 2175 1050 
L 2225 1050 
L 2550 2925 
L 3075 2925 
z
" transform="scale(0.015625)"/>
        <path id="SimHei-72" d="M 2500 2425 
Q 2025 2500 1700 2287 
Q 1375 2075 1150 1550 
L 1150 125 
L 650 125 
L 650 2925 
L 1150 2925 
L 1150 2200 
Q 1375 2600 1712 2787 
Q 2050 2975 2500 2975 
L 2500 2425 
z
" transform="scale(0.015625)"/>
        <path id="SimHei-69" d="M 1800 3725 
L 1300 3725 
L 1300 4375 
L 1800 4375 
L 1800 3725 
z
M 1800 125 
L 1300 125 
L 1300 2925 
L 1800 2925 
L 1800 125 
z
" transform="scale(0.015625)"/>
        <path id="SimHei-74" d="M 2750 200 
Q 2625 150 2462 112 
Q 2300 75 2025 75 
Q 1575 75 1300 325 
Q 1025 575 1025 1025 
L 1025 2525 
L 175 2525 
L 175 2925 
L 1025 2925 
L 1025 3900 
L 1525 3900 
L 1525 2925 
L 2550 2925 
L 2550 2525 
L 1525 2525 
L 1525 1000 
Q 1525 800 1625 662 
Q 1725 525 2000 525 
Q 2275 525 2450 575 
Q 2625 625 2750 700 
L 2750 200 
z
" transform="scale(0.015625)"/>
        <path id="SimHei-65" d="M 2850 1075 
Q 2800 625 2450 350 
Q 2100 75 1625 75 
Q 1025 75 637 462 
Q 250 850 250 1525 
Q 250 2200 637 2587 
Q 1025 2975 1625 2975 
Q 2150 2975 2487 2637 
Q 2825 2300 2825 1525 
L 800 1525 
Q 800 975 1037 750 
Q 1275 525 1625 525 
Q 1900 525 2075 662 
Q 2250 800 2300 1075 
L 2850 1075 
z
M 2250 1925 
Q 2200 2275 2025 2412 
Q 1850 2550 1575 2550 
Q 1325 2550 1125 2412 
Q 925 2275 825 1925 
L 2250 1925 
z
" transform="scale(0.015625)"/>
       </defs>
       <use xlink:href="#SimHei-77"/>
       <use xlink:href="#SimHei-72" x="50"/>
       <use xlink:href="#SimHei-69" x="100"/>
       <use xlink:href="#SimHei-74" x="150"/>
       <use xlink:href="#SimHei-65" x="200"/>
      </g>
     </g>
    </g>
    <g id="xtick_2">
     <g id="line2d_2">
      <g>
       <use xlink:href="#m6388be26d4" x="195.438819" y="319.115" style="stroke: #000000; stroke-width: 0.8"/>
      </g>
     </g>
     <g id="text_2">
      <!-- read -->
      <g transform="translate(185.438819 332.99)scale(0.1 -0.1)">
       <defs>
        <path id="SimHei-61" d="M 2875 125 
L 2275 125 
Q 2225 175 2200 262 
Q 2175 350 2175 475 
Q 2000 275 1750 175 
Q 1500 75 1225 75 
Q 825 75 550 275 
Q 275 475 275 850 
Q 275 1225 525 1450 
Q 775 1675 1300 1750 
Q 1650 1800 1912 1875 
Q 2175 1950 2175 2075 
Q 2175 2225 2062 2375 
Q 1950 2525 1575 2525 
Q 1275 2525 1137 2412 
Q 1000 2300 950 2100 
L 400 2100 
Q 450 2500 762 2737 
Q 1075 2975 1575 2975 
Q 2125 2975 2400 2725 
Q 2675 2475 2675 2025 
L 2675 650 
Q 2675 500 2725 375 
Q 2775 250 2875 125 
z
M 2175 1050 
L 2175 1550 
Q 2025 1500 1887 1462 
Q 1750 1425 1425 1375 
Q 1050 1325 937 1200 
Q 825 1075 825 900 
Q 825 750 937 637 
Q 1050 525 1275 525 
Q 1500 525 1762 650 
Q 2025 775 2175 1050 
z
" transform="scale(0.015625)"/>
        <path id="SimHei-64" d="M 2750 125 
L 2250 125 
L 2250 500 
Q 2100 275 1900 175 
Q 1700 75 1425 75 
Q 925 75 575 437 
Q 225 800 225 1525 
Q 225 2250 575 2625 
Q 925 3000 1425 3000 
Q 1700 3000 1900 2887 
Q 2100 2775 2250 2550 
L 2250 4400 
L 2750 4400 
L 2750 125 
z
M 2250 1525 
Q 2250 2000 2037 2275 
Q 1825 2550 1525 2550 
Q 1150 2550 962 2275 
Q 775 2000 775 1525 
Q 775 1050 962 787 
Q 1150 525 1525 525 
Q 1825 525 2037 787 
Q 2250 1050 2250 1525 
z
" transform="scale(0.015625)"/>
       </defs>
       <use xlink:href="#SimHei-72"/>
       <use xlink:href="#SimHei-65" x="50"/>
       <use xlink:href="#SimHei-61" x="100"/>
       <use xlink:href="#SimHei-64" x="150"/>
      </g>
     </g>
    </g>
    <g id="xtick_3">
     <g id="line2d_3">
      <g>
       <use xlink:href="#m6388be26d4" x="295.857431" y="319.115" style="stroke: #000000; stroke-width: 0.8"/>
      </g>
     </g>
     <g id="text_3">
      <!-- repair1 -->
      <g transform="translate(278.357431 333.068125)scale(0.1 -0.1)">
       <defs>
        <path id="SimHei-70" d="M 2825 1525 
Q 2825 800 2475 425 
Q 2125 50 1625 50 
Q 1350 50 1150 162 
Q 950 275 800 500 
L 800 -800 
L 300 -800 
L 300 2925 
L 800 2925 
L 800 2550 
Q 950 2775 1150 2875 
Q 1350 2975 1625 2975 
Q 2125 2975 2475 2612 
Q 2825 2250 2825 1525 
z
M 2275 1525 
Q 2275 2000 2087 2262 
Q 1900 2525 1525 2525 
Q 1225 2525 1012 2262 
Q 800 2000 800 1525 
Q 800 1050 1012 775 
Q 1225 500 1525 500 
Q 1900 500 2087 775 
Q 2275 1050 2275 1525 
z
" transform="scale(0.015625)"/>
        <path id="SimHei-31" d="M 1400 3600 
Q 1075 3275 575 2975 
L 575 3450 
Q 1200 3875 1600 4450 
L 1900 4450 
L 1900 150 
L 1400 150 
L 1400 3600 
z
" transform="scale(0.015625)"/>
       </defs>
       <use xlink:href="#SimHei-72"/>
       <use xlink:href="#SimHei-65" x="50"/>
       <use xlink:href="#SimHei-70" x="100"/>
       <use xlink:href="#SimHei-61" x="150"/>
       <use xlink:href="#SimHei-69" x="200"/>
       <use xlink:href="#SimHei-72" x="250"/>
       <use xlink:href="#SimHei-31" x="300"/>
      </g>
     </g>
    </g>
    <g id="xtick_4">
     <g id="line2d_4">
      <g>
       <use xlink:href="#m6388be26d4" x="396.276043" y="319.115" style="stroke: #000000; stroke-width: 0.8"/>
      </g>
     </g>
     <g id="text_4">
      <!-- repair2 -->
      <g transform="translate(378.776043 333.14625)scale(0.1 -0.1)">
       <defs>
        <path id="SimHei-32" d="M 300 250 
Q 325 625 650 925 
Q 975 1225 1475 1862 
Q 1975 2500 2125 2850 
Q 2275 3200 2237 3450 
Q 2200 3700 2000 3862 
Q 1800 4025 1537 4000 
Q 1275 3975 1037 3800 
Q 800 3625 675 3275 
L 200 3350 
Q 400 3925 712 4187 
Q 1025 4450 1450 4475 
Q 1700 4500 1900 4462 
Q 2100 4425 2312 4287 
Q 2525 4150 2662 3875 
Q 2800 3600 2762 3212 
Q 2725 2825 2375 2287 
Q 2025 1750 1025 600 
L 2825 600 
L 2825 150 
L 300 150 
L 300 250 
z
" transform="scale(0.015625)"/>
       </defs>
       <use xlink:href="#SimHei-72"/>
       <use xlink:href="#SimHei-65" x="50"/>
       <use xlink:href="#SimHei-70" x="100"/>
       <use xlink:href="#SimHei-61" x="150"/>
       <use xlink:href="#SimHei-69" x="200"/>
       <use xlink:href="#SimHei-72" x="250"/>
       <use xlink:href="#SimHei-32" x="300"/>
      </g>
     </g>
    </g>
   </g>
   <g id="matplotlib.axis_2">
    <g id="ytick_1">
     <g id="line2d_5">
      <defs>
       <path id="m535c96c207" d="M 0 0 
L -3.5 0 
" style="stroke: #000000; stroke-width: 0.8"/>
      </defs>
      <g>
       <use xlink:href="#m535c96c207" x="41.29625" y="319.115" style="stroke: #000000; stroke-width: 0.8"/>
      </g>
     </g>
     <g id="text_5">
      <!-- 0 -->
      <g transform="translate(29.29625 322.5525)scale(0.1 -0.1)">
       <defs>
        <path id="SimHei-30" d="M 225 2537 
Q 250 3200 412 3587 
Q 575 3975 875 4225 
Q 1175 4475 1612 4475 
Q 2050 4475 2375 4112 
Q 2700 3750 2800 3200 
Q 2900 2650 2862 1937 
Q 2825 1225 2612 775 
Q 2400 325 1975 150 
Q 1550 -25 1125 187 
Q 700 400 525 750 
Q 350 1100 275 1487 
Q 200 1875 225 2537 
z
M 750 2687 
Q 675 2000 800 1462 
Q 925 925 1212 700 
Q 1500 475 1800 612 
Q 2100 750 2237 1162 
Q 2375 1575 2375 2062 
Q 2375 2550 2337 2950 
Q 2300 3350 2112 3675 
Q 1925 4000 1612 4012 
Q 1300 4025 1062 3700 
Q 825 3375 750 2687 
z
" transform="scale(0.015625)"/>
       </defs>
       <use xlink:href="#SimHei-30"/>
      </g>
     </g>
    </g>
    <g id="ytick_2">
     <g id="line2d_6">
      <g>
       <use xlink:href="#m535c96c207" x="41.29625" y="282.62667" style="stroke: #000000; stroke-width: 0.8"/>
      </g>
     </g>
     <g id="text_6">
      <!-- 10 -->
      <g transform="translate(24.29625 286.06417)scale(0.1 -0.1)">
       <use xlink:href="#SimHei-31"/>
       <use xlink:href="#SimHei-30" x="50"/>
      </g>
     </g>
    </g>
    <g id="ytick_3">
     <g id="line2d_7">
      <g>
       <use xlink:href="#m535c96c207" x="41.29625" y="246.13834" style="stroke: #000000; stroke-width: 0.8"/>
      </g>
     </g>
     <g id="text_7">
      <!-- 20 -->
      <g transform="translate(24.29625 249.57584)scale(0.1 -0.1)">
       <use xlink:href="#SimHei-32"/>
       <use xlink:href="#SimHei-30" x="50"/>
      </g>
     </g>
    </g>
    <g id="ytick_4">
     <g id="line2d_8">
      <g>
       <use xlink:href="#m535c96c207" x="41.29625" y="209.65001" style="stroke: #000000; stroke-width: 0.8"/>
      </g>
     </g>
     <g id="text_8">
      <!-- 30 -->
      <g transform="translate(24.29625 213.08751)scale(0.1 -0.1)">
       <defs>
        <path id="SimHei-33" d="M 250 1225 
L 700 1300 
Q 800 975 1025 762 
Q 1250 550 1587 562 
Q 1925 575 2125 837 
Q 2325 1100 2300 1437 
Q 2275 1775 2037 1962 
Q 1800 2150 1275 2225 
L 1275 2550 
Q 1800 2600 2037 2825 
Q 2275 3050 2250 3412 
Q 2225 3775 1925 3937 
Q 1625 4100 1287 3975 
Q 950 3850 750 3275 
L 300 3350 
Q 450 3800 712 4100 
Q 975 4400 1425 4450 
Q 1875 4500 2212 4337 
Q 2550 4175 2687 3837 
Q 2825 3500 2725 3100 
Q 2625 2700 2150 2400 
Q 2500 2250 2687 1950 
Q 2875 1650 2812 1162 
Q 2750 675 2375 375 
Q 2000 75 1525 87 
Q 1050 100 700 387 
Q 350 675 250 1225 
z
" transform="scale(0.015625)"/>
       </defs>
       <use xlink:href="#SimHei-33"/>
       <use xlink:href="#SimHei-30" x="50"/>
      </g>
     </g>
    </g>
    <g id="ytick_5">
     <g id="line2d_9">
      <g>
       <use xlink:href="#m535c96c207" x="41.29625" y="173.16168" style="stroke: #000000; stroke-width: 0.8"/>
      </g>
     </g>
     <g id="text_9">
      <!-- 40 -->
      <g transform="translate(24.29625 176.59918)scale(0.1 -0.1)">
       <defs>
        <path id="SimHei-34" d="M 2000 1100 
L 75 1100 
L 75 1525 
L 2100 4450 
L 2475 4450 
L 2475 1525 
L 3075 1525 
L 3075 1100 
L 2475 1100 
L 2475 150 
L 2000 150 
L 2000 1100 
z
M 2000 1525 
L 2000 3500 
L 600 1525 
L 2000 1525 
z
" transform="scale(0.015625)"/>
       </defs>
       <use xlink:href="#SimHei-34"/>
       <use xlink:href="#SimHei-30" x="50"/>
      </g>
     </g>
    </g>
    <g id="ytick_6">
     <g id="line2d_10">
      <g>
       <use xlink:href="#m535c96c207" x="41.29625" y="136.673351" style="stroke: #000000; stroke-width: 0.8"/>
      </g>
     </g>
     <g id="text_10">
      <!-- 50 -->
      <g transform="translate(24.29625 140.110851)scale(0.1 -0.1)">
       <defs>
        <path id="SimHei-35" d="M 550 1325 
Q 725 650 1150 575 
Q 1575 500 1837 662 
Q 2100 825 2212 1087 
Q 2325 1350 2312 1675 
Q 2300 2000 2137 2225 
Q 1975 2450 1725 2525 
Q 1475 2600 1162 2525 
Q 850 2450 650 2175 
L 225 2225 
Q 275 2375 700 4375 
L 2675 4375 
L 2675 3925 
L 1075 3925 
Q 950 3250 825 2850 
Q 1200 3025 1525 3012 
Q 1850 3000 2150 2862 
Q 2450 2725 2587 2487 
Q 2725 2250 2787 2012 
Q 2850 1775 2837 1500 
Q 2825 1225 2725 937 
Q 2625 650 2425 462 
Q 2225 275 1937 162 
Q 1650 50 1275 75 
Q 900 100 562 350 
Q 225 600 100 1200 
L 550 1325 
z
" transform="scale(0.015625)"/>
       </defs>
       <use xlink:href="#SimHei-35"/>
       <use xlink:href="#SimHei-30" x="50"/>
      </g>
     </g>
    </g>
    <g id="ytick_7">
     <g id="line2d_11">
      <g>
       <use xlink:href="#m535c96c207" x="41.29625" y="100.185021" style="stroke: #000000; stroke-width: 0.8"/>
      </g>
     </g>
     <g id="text_11">
      <!-- 60 -->
      <g transform="translate(24.29625 103.622521)scale(0.1 -0.1)">
       <defs>
        <path id="SimHei-36" d="M 250 1612 
Q 275 1975 387 2225 
Q 500 2475 725 2850 
L 1750 4450 
L 2325 4450 
L 1275 2800 
Q 1950 2975 2350 2750 
Q 2750 2525 2887 2237 
Q 3025 1950 3037 1612 
Q 3050 1275 2937 950 
Q 2825 625 2537 362 
Q 2250 100 1737 75 
Q 1225 50 862 262 
Q 500 475 362 862 
Q 225 1250 250 1612 
z
M 1025 787 
Q 1250 550 1625 525 
Q 2000 500 2250 775 
Q 2500 1050 2500 1575 
Q 2500 2100 2187 2300 
Q 1875 2500 1487 2450 
Q 1100 2400 925 2075 
Q 750 1750 775 1387 
Q 800 1025 1025 787 
z
" transform="scale(0.015625)"/>
       </defs>
       <use xlink:href="#SimHei-36"/>
       <use xlink:href="#SimHei-30" x="50"/>
      </g>
     </g>
    </g>
    <g id="ytick_8">
     <g id="line2d_12">
      <g>
       <use xlink:href="#m535c96c207" x="41.29625" y="63.696691" style="stroke: #000000; stroke-width: 0.8"/>
      </g>
     </g>
     <g id="text_12">
      <!-- 70 -->
      <g transform="translate(24.29625 67.134191)scale(0.1 -0.1)">
       <defs>
        <path id="SimHei-37" d="M 850 150 
Q 1300 2050 2425 3925 
L 275 3925 
L 275 4375 
L 2950 4375 
L 2950 3950 
Q 1775 2050 1400 150 
L 850 150 
z
" transform="scale(0.015625)"/>
       </defs>
       <use xlink:href="#SimHei-37"/>
       <use xlink:href="#SimHei-30" x="50"/>
      </g>
     </g>
    </g>
    <g id="text_13">
     <!-- 时间 -->
     <g transform="translate(19.04625 183.335)rotate(-90)scale(0.1 -0.1)">
      <defs>
       <path id="SimHei-65f6" d="M 2525 4575 
Q 2500 3675 2500 2400 
Q 2500 1125 2525 400 
L 2000 400 
L 2000 875 
L 1000 875 
L 1000 50 
L 475 50 
Q 500 1200 500 2350 
Q 500 3525 475 4575 
L 2525 4575 
z
M 4875 3825 
Q 4875 4575 4850 5225 
L 5400 5225 
Q 5375 4575 5375 3825 
Q 5750 3825 6175 3850 
L 6175 3375 
Q 5750 3400 5375 3400 
L 5375 50 
Q 5375 -325 5075 -425 
Q 4775 -525 4300 -575 
Q 4300 -275 4025 0 
Q 4500 -50 4687 -25 
Q 4875 0 4875 300 
L 4875 3400 
Q 3625 3400 2775 3375 
L 2775 3850 
Q 3575 3825 4875 3825 
z
M 2000 1300 
L 2000 2550 
L 1000 2550 
L 1000 1300 
L 2000 1300 
z
M 2000 2975 
L 2000 4150 
L 1000 4150 
L 1000 2975 
L 2000 2975 
z
M 3550 2725 
Q 3875 2200 4175 1600 
Q 3925 1525 3650 1375 
Q 3450 1975 3075 2500 
Q 3300 2600 3550 2725 
z
" transform="scale(0.015625)"/>
       <path id="SimHei-95f4" d="M 4450 3550 
Q 4425 3075 4425 2725 
L 4425 1400 
Q 4425 1075 4450 625 
L 1925 625 
Q 1950 1075 1950 1425 
L 1950 2725 
Q 1950 3075 1925 3550 
L 4450 3550 
z
M 5800 4875 
Q 5775 4400 5775 3925 
L 5775 250 
Q 5800 -325 5462 -450 
Q 5125 -575 4725 -625 
Q 4700 -325 4525 -25 
Q 5000 -50 5137 25 
Q 5275 100 5275 350 
L 5275 4450 
L 3775 4450 
Q 3175 4450 2650 4425 
L 2650 4900 
Q 3175 4875 3775 4875 
L 5800 4875 
z
M 550 -525 
Q 600 -25 600 525 
L 600 3150 
Q 600 3675 550 4025 
L 1125 4025 
Q 1100 3650 1100 3300 
L 1100 500 
Q 1100 0 1125 -525 
L 550 -525 
z
M 3950 1025 
L 3950 1950 
L 2425 1950 
L 2425 1025 
L 3950 1025 
z
M 3950 2350 
L 3950 3150 
L 2425 3150 
L 2425 2350 
L 3950 2350 
z
M 1525 5300 
Q 1750 5000 2225 4350 
Q 1950 4225 1700 4075 
Q 1450 4575 1075 5025 
Q 1350 5225 1525 5300 
z
" transform="scale(0.015625)"/>
      </defs>
      <use xlink:href="#SimHei-65f6"/>
      <use xlink:href="#SimHei-95f4" x="100"/>
     </g>
    </g>
   </g>
   <g id="patch_11">
    <path d="M 41.29625 319.115 
L 41.29625 27.555 
" style="fill: none; stroke: #000000; stroke-width: 0.8; stroke-linejoin: miter; stroke-linecap: square"/>
   </g>
   <g id="patch_12">
    <path d="M 450 319.115 
L 450 27.555 
" style="fill: none; stroke: #000000; stroke-width: 0.8; stroke-linejoin: miter; stroke-linecap: square"/>
   </g>
   <g id="patch_13">
    <path d="M 41.29625 319.115 
L 450 319.115 
" style="fill: none; stroke: #000000; stroke-width: 0.8; stroke-linejoin: miter; stroke-linecap: square"/>
   </g>
   <g id="patch_14">
    <path d="M 41.29625 27.555 
L 450 27.555 
" style="fill: none; stroke: #000000; stroke-width: 0.8; stroke-linejoin: miter; stroke-linecap: square"/>
   </g>
   <g id="text_14">
    <!-- 71.5 -->
    <g transform="translate(67.44695 53.973441)scale(0.1 -0.1)">
     <defs>
      <path id="SimHei-2e" d="M 1075 125 
L 500 125 
L 500 675 
L 1075 675 
L 1075 125 
z
" transform="scale(0.015625)"/>
     </defs>
     <use xlink:href="#SimHei-37"/>
     <use xlink:href="#SimHei-31" x="50"/>
     <use xlink:href="#SimHei-2e" x="100"/>
     <use xlink:href="#SimHei-35" x="150"/>
    </g>
   </g>
   <g id="text_15">
    <!-- 53.5 -->
    <g transform="translate(167.865562 119.652435)scale(0.1 -0.1)">
     <use xlink:href="#SimHei-35"/>
     <use xlink:href="#SimHei-33" x="50"/>
     <use xlink:href="#SimHei-2e" x="100"/>
     <use xlink:href="#SimHei-35" x="150"/>
    </g>
   </g>
   <g id="text_16">
    <!-- 35.1 -->
    <g transform="translate(268.284174 186.790962)scale(0.1 -0.1)">
     <use xlink:href="#SimHei-33"/>
     <use xlink:href="#SimHei-35" x="50"/>
     <use xlink:href="#SimHei-2e" x="100"/>
     <use xlink:href="#SimHei-31" x="150"/>
    </g>
   </g>
   <g id="text_17">
    <!-- 44.2 -->
    <g transform="translate(368.702786 153.586582)scale(0.1 -0.1)">
     <use xlink:href="#SimHei-34"/>
     <use xlink:href="#SimHei-34" x="50"/>
     <use xlink:href="#SimHei-2e" x="100"/>
     <use xlink:href="#SimHei-32" x="150"/>
    </g>
   </g>
   <g id="text_18">
    <!-- 76.1 -->
    <g transform="translate(102.593464 37.18881)scale(0.1 -0.1)">
     <use xlink:href="#SimHei-37"/>
     <use xlink:href="#SimHei-36" x="50"/>
     <use xlink:href="#SimHei-2e" x="100"/>
     <use xlink:href="#SimHei-31" x="150"/>
    </g>
   </g>
   <g id="text_19">
    <!-- 72.9 -->
    <g transform="translate(203.012076 48.865075)scale(0.1 -0.1)">
     <defs>
      <path id="SimHei-39" d="M 800 75 
Q 1350 1000 1700 1750 
Q 1075 1650 662 1912 
Q 250 2175 162 2625 
Q 75 3075 175 3437 
Q 275 3800 487 4037 
Q 700 4275 1000 4375 
Q 1300 4475 1537 4475 
Q 1775 4475 2025 4375 
Q 2275 4275 2475 4075 
Q 2675 3875 2750 3662 
Q 2825 3450 2825 3112 
Q 2825 2775 2575 2250 
Q 2325 1725 1350 75 
L 800 75 
z
M 662 2875 
Q 700 2550 937 2337 
Q 1175 2125 1450 2150 
Q 1725 2175 1887 2300 
Q 2050 2425 2200 2725 
Q 2300 3100 2250 3362 
Q 2200 3625 1987 3800 
Q 1775 3975 1525 3975 
Q 1375 4000 1137 3900 
Q 900 3800 762 3500 
Q 625 3200 662 2875 
z
" transform="scale(0.015625)"/>
     </defs>
     <use xlink:href="#SimHei-37"/>
     <use xlink:href="#SimHei-32" x="50"/>
     <use xlink:href="#SimHei-2e" x="100"/>
     <use xlink:href="#SimHei-39" x="150"/>
    </g>
   </g>
   <g id="text_20">
    <!-- 45.5 -->
    <g transform="translate(303.430688 148.843099)scale(0.1 -0.1)">
     <use xlink:href="#SimHei-34"/>
     <use xlink:href="#SimHei-35" x="50"/>
     <use xlink:href="#SimHei-2e" x="100"/>
     <use xlink:href="#SimHei-35" x="150"/>
    </g>
   </g>
   <g id="text_21">
    <!-- 47.6 -->
    <g transform="translate(403.8493 141.18055)scale(0.1 -0.1)">
     <use xlink:href="#SimHei-34"/>
     <use xlink:href="#SimHei-37" x="50"/>
     <use xlink:href="#SimHei-2e" x="100"/>
     <use xlink:href="#SimHei-36" x="150"/>
    </g>
   </g>
   <g id="text_22">
    <!-- 优化后的实现与朴素实现耗时对比 -->
    <g transform="translate(148.148125 21.555)scale(0.13 -0.13)">
     <defs>
      <path id="SimHei-4f18" d="M 4650 350 
Q 4625 100 4825 50 
Q 5025 0 5200 12 
Q 5375 25 5462 125 
Q 5550 225 5650 800 
Q 5825 625 6200 525 
Q 6050 -25 5912 -200 
Q 5775 -375 5475 -400 
L 4700 -400 
Q 4175 -400 4175 200 
L 4175 3050 
L 3850 3050 
Q 3725 600 2375 -550 
Q 2200 -325 1875 -225 
Q 3175 675 3350 3050 
L 2900 3050 
Q 2350 3050 1975 3025 
L 1975 3475 
Q 2350 3450 2900 3450 
L 3375 3450 
Q 3375 4700 3350 5150 
Q 3525 5100 3925 5075 
Q 3850 4700 3850 3450 
L 5200 3450 
Q 5475 3450 5925 3475 
L 5925 3025 
Q 5500 3050 5225 3050 
L 4650 3050 
L 4650 350 
z
M 200 2375 
Q 525 2700 1000 3612 
Q 1475 4525 1600 5200 
Q 1850 5050 2225 4925 
Q 2000 4700 1700 3825 
L 1700 600 
Q 1700 -150 1725 -525 
L 1200 -525 
Q 1225 -175 1225 575 
L 1225 2975 
Q 900 2425 550 1975 
Q 425 2200 200 2375 
z
M 4850 5025 
Q 5000 4800 5150 4587 
Q 5300 4375 5450 4200 
Q 5250 4075 5025 3875 
Q 4875 4175 4450 4725 
Q 4625 4850 4850 5025 
z
" transform="scale(0.015625)"/>
      <path id="SimHei-5316" d="M 3925 5025 
Q 3900 4900 3900 4400 
L 3900 2625 
Q 4375 3025 4775 3450 
Q 5175 3875 5400 4300 
Q 5600 4100 5900 3925 
Q 5700 3700 5225 3212 
Q 4750 2725 4487 2512 
Q 4225 2300 3900 2025 
L 3900 450 
Q 3900 50 4225 50 
L 5200 50 
Q 5400 75 5462 262 
Q 5525 450 5575 850 
Q 5800 650 6150 600 
Q 6000 -100 5825 -250 
Q 5650 -400 5350 -400 
L 3950 -400 
Q 3425 -400 3400 200 
L 3400 1675 
Q 3225 1525 2962 1350 
Q 2700 1175 2375 975 
Q 2225 1225 2025 1400 
Q 2350 1550 2737 1787 
Q 3125 2025 3400 2250 
L 3400 4500 
Q 3400 4800 3375 5025 
L 3925 5025 
z
M 2400 4850 
Q 2175 4550 2075 4337 
Q 1975 4125 1825 3775 
L 1825 675 
Q 1825 -75 1850 -550 
L 1325 -550 
Q 1350 -125 1350 650 
L 1350 3050 
Q 1125 2725 962 2525 
Q 800 2325 675 2175 
Q 500 2375 275 2525 
Q 625 2850 875 3212 
Q 1125 3575 1312 3912 
Q 1500 4250 1625 4575 
Q 1750 4900 1825 5100 
Q 1975 4975 2400 4850 
z
" transform="scale(0.015625)"/>
      <path id="SimHei-540e" d="M 5475 2150 
Q 5450 1750 5450 775 
Q 5450 -175 5500 -550 
L 4975 -550 
L 4975 -25 
L 2525 -25 
L 2525 -600 
L 2025 -600 
Q 2050 -175 2050 775 
Q 2050 1750 2025 2150 
L 5475 2150 
z
M 5175 5075 
Q 5300 4800 5525 4525 
Q 4950 4475 3750 4337 
Q 2550 4200 1575 4175 
L 1575 3375 
L 5200 3375 
Q 5550 3375 5975 3400 
L 5975 2900 
Q 5575 2925 5200 2925 
L 1575 2925 
Q 1550 2425 1487 1875 
Q 1425 1325 1250 712 
Q 1075 100 800 -325 
Q 650 -200 225 -50 
Q 625 325 825 1062 
Q 1025 1800 1050 2825 
Q 1075 3850 1075 4575 
Q 2300 4600 3625 4775 
Q 4950 4950 5175 5075 
z
M 4975 375 
L 4975 1725 
L 2525 1725 
L 2525 375 
L 4975 375 
z
" transform="scale(0.015625)"/>
      <path id="SimHei-7684" d="M 2100 4975 
Q 1975 4750 1750 3950 
L 2875 3950 
Q 2850 3525 2850 2875 
L 2850 675 
Q 2850 300 2875 -400 
L 2375 -400 
L 2375 100 
L 1100 100 
L 1100 -450 
L 600 -450 
Q 625 350 625 550 
L 625 2850 
Q 625 3525 600 3950 
L 1325 3950 
Q 1450 4525 1525 5150 
Q 1875 5025 2100 4975 
z
M 5825 3075 
Q 5800 1550 5700 175 
Q 5650 -275 5225 -425 
Q 4800 -575 4275 -625 
Q 4250 -350 4050 -50 
Q 4550 -75 4837 -25 
Q 5125 25 5200 200 
Q 5275 375 5312 1225 
Q 5350 2075 5375 3600 
L 3925 3600 
Q 3725 3125 3350 2475 
Q 3175 2650 2925 2750 
Q 3150 3050 3350 3475 
Q 3550 3900 3700 4400 
Q 3850 4900 3875 5175 
Q 4225 5025 4475 4950 
Q 4350 4750 4262 4512 
Q 4175 4275 4075 4050 
L 5850 4050 
Q 5825 3525 5825 3075 
z
M 2375 525 
L 2375 1850 
L 1100 1850 
L 1100 525 
L 2375 525 
z
M 2375 2275 
L 2375 3525 
L 1100 3525 
L 1100 2275 
L 2375 2275 
z
M 4350 2050 
Q 4500 1750 4700 1275 
Q 4525 1200 4225 1025 
Q 4050 1500 3900 1837 
Q 3750 2175 3600 2400 
Q 3775 2500 4050 2650 
L 4350 2050 
z
" transform="scale(0.015625)"/>
      <path id="SimHei-5b9e" d="M 4125 3500 
Q 4050 3200 4000 2675 
Q 3950 2150 3850 1550 
L 5025 1550 
Q 5475 1550 5975 1575 
L 5975 1100 
Q 5450 1125 5000 1125 
L 3725 1125 
Q 3500 625 3050 250 
Q 2600 -125 2000 -337 
Q 1400 -550 925 -675 
Q 825 -375 500 -200 
Q 1225 -125 2050 212 
Q 2875 550 3200 1125 
L 1425 1125 
Q 975 1125 425 1100 
L 425 1575 
Q 1000 1550 1425 1550 
L 3375 1550 
Q 3450 1975 3487 2462 
Q 3525 2950 3500 3650 
Q 3800 3550 4125 3500 
z
M 3250 5250 
Q 3450 4850 3600 4375 
L 5775 4375 
Q 5750 4100 5750 3825 
Q 5750 3575 5775 3275 
L 5200 3275 
L 5200 3975 
L 1225 3975 
L 1225 3225 
L 675 3225 
Q 700 3525 700 3800 
Q 700 4100 675 4375 
L 2975 4375 
Q 2900 4675 2700 5075 
Q 2900 5150 3250 5250 
z
M 4000 825 
Q 4550 525 5050 262 
Q 5550 0 5925 -225 
Q 5750 -425 5550 -650 
Q 5100 -325 4575 -37 
Q 4050 250 3675 400 
Q 3875 650 4000 825 
z
M 1175 2750 
Q 1600 2550 2350 2050 
Q 2250 1900 2050 1650 
Q 1350 2175 925 2350 
Q 1075 2500 1175 2750 
z
M 3150 2825 
Q 2975 2625 2850 2425 
Q 2050 3000 1675 3125 
Q 1800 3300 1950 3525 
L 3150 2825 
z
" transform="scale(0.015625)"/>
      <path id="SimHei-73b0" d="M 4650 3850 
Q 4550 3575 4512 2975 
Q 4475 2375 4350 1700 
L 4850 1700 
Q 4825 1450 4825 1025 
L 4825 225 
Q 4825 -150 4962 -175 
Q 5100 -200 5275 -187 
Q 5450 -175 5525 -12 
Q 5600 150 5625 575 
Q 5875 425 6175 375 
Q 6050 -150 5925 -337 
Q 5800 -525 5400 -575 
L 4900 -575 
Q 4350 -575 4350 -100 
L 4350 1650 
Q 4125 850 3700 312 
Q 3275 -225 2425 -675 
Q 2300 -475 2000 -325 
Q 2800 0 3175 387 
Q 3550 775 3775 1375 
Q 4000 1975 4037 2625 
Q 4075 3275 4050 3925 
Q 4375 3875 4650 3850 
z
M 1850 4625 
Q 2125 4625 2525 4650 
L 2525 4175 
Q 2125 4200 1675 4200 
L 1675 2825 
Q 2025 2825 2425 2850 
L 2425 2375 
Q 2025 2400 1675 2400 
L 1675 875 
Q 2100 975 2550 1125 
Q 2525 850 2525 650 
Q 1700 450 1200 275 
Q 700 100 450 -25 
Q 375 325 250 575 
Q 650 625 1225 750 
L 1225 2400 
Q 825 2400 450 2375 
L 450 2850 
Q 825 2825 1225 2825 
L 1225 4200 
Q 775 4200 425 4175 
L 425 4650 
Q 725 4625 1000 4625 
L 1850 4625 
z
M 5750 4875 
Q 5725 4475 5725 4075 
L 5725 2400 
Q 5725 1925 5750 1575 
L 5275 1575 
L 5275 4475 
L 3375 4475 
L 3375 1550 
L 2900 1550 
Q 2925 1975 2925 2500 
L 2925 3875 
Q 2925 4425 2900 4875 
L 5750 4875 
z
" transform="scale(0.015625)"/>
      <path id="SimHei-4e0e" d="M 5350 100 
Q 5275 -300 4925 -425 
Q 4575 -550 3900 -600 
Q 3875 -375 3650 -25 
Q 4375 -50 4575 0 
Q 4775 50 4837 225 
Q 4900 400 5100 2350 
L 1125 2350 
Q 1450 4350 1475 5200 
Q 1800 5150 2075 5125 
Q 1975 4825 1900 4275 
L 4900 4275 
Q 5400 4275 5800 4300 
L 5800 3825 
Q 5400 3850 4950 3850 
L 1850 3850 
L 1700 2750 
L 5675 2750 
Q 5625 2450 5575 2050 
L 5350 100 
z
M 3675 1350 
Q 4125 1350 4500 1375 
L 4500 875 
Q 4125 900 3850 900 
L 1450 900 
Q 1000 900 500 875 
L 500 1375 
Q 1000 1350 1450 1350 
L 3675 1350 
z
" transform="scale(0.015625)"/>
      <path id="SimHei-6734" d="M 1575 3800 
Q 1575 4700 1550 5125 
L 2100 5125 
Q 2075 4450 2075 3800 
Q 2625 3800 3075 3825 
L 3075 3375 
Q 2625 3400 2075 3400 
L 2075 2550 
Q 2275 2700 2400 2850 
Q 2925 2275 3200 1925 
Q 2950 1775 2750 1575 
Q 2575 1900 2075 2450 
L 2075 925 
Q 2075 250 2125 -550 
L 1525 -550 
Q 1575 100 1575 925 
L 1575 2200 
Q 1325 1625 675 800 
Q 500 1025 225 1175 
Q 725 1625 1062 2250 
Q 1400 2875 1525 3400 
Q 850 3400 400 3375 
L 400 3825 
Q 875 3800 1575 3800 
z
M 4375 5200 
Q 4325 4425 4325 3700 
L 4325 1100 
Q 4325 275 4375 -575 
L 3750 -575 
Q 3800 175 3800 1050 
L 3800 3700 
Q 3800 4350 3750 5200 
L 4375 5200 
z
M 4850 3375 
Q 5325 2875 6150 1825 
Q 5850 1700 5600 1475 
Q 5150 2200 4400 3075 
Q 4575 3150 4850 3375 
z
" transform="scale(0.015625)"/>
      <path id="SimHei-7d20" d="M 2950 4650 
Q 2950 4775 2925 5125 
L 3450 5125 
Q 3425 4825 3425 4650 
L 4750 4650 
Q 5150 4650 5550 4675 
L 5550 4225 
Q 5150 4250 4775 4250 
L 3425 4250 
L 3425 3825 
L 4425 3825 
Q 4775 3825 5225 3850 
L 5225 3450 
Q 4800 3475 4425 3475 
L 3425 3475 
L 3425 3075 
L 5150 3075 
Q 5500 3075 5950 3100 
L 5950 2675 
Q 5500 2700 5150 2700 
L 3200 2700 
Q 2925 2475 2475 2200 
Q 3125 2225 3750 2250 
Q 4025 2350 4400 2650 
Q 4675 2450 4900 2300 
Q 4475 2150 3950 1875 
L 2825 1325 
Q 3725 1375 4825 1450 
Q 4700 1625 4550 1725 
Q 4750 1825 4925 1975 
Q 5525 1375 5800 1075 
Q 5575 925 5350 750 
Q 5200 1000 5100 1100 
Q 4025 1050 3550 1000 
L 3550 50 
Q 3575 -325 3350 -412 
Q 3125 -500 2675 -575 
Q 2600 -350 2425 -50 
Q 2750 -50 2912 -25 
Q 3075 0 3075 200 
L 3075 975 
Q 2725 950 2062 887 
Q 1400 825 1150 775 
Q 1100 1025 1000 1225 
Q 1375 1250 1712 1325 
Q 2050 1400 2375 1512 
Q 2700 1625 3125 1875 
Q 2475 1850 2187 1825 
Q 1900 1800 1525 1750 
Q 1475 2050 1375 2225 
Q 1750 2225 2012 2350 
Q 2275 2475 2525 2700 
L 1275 2700 
Q 875 2700 425 2675 
L 425 3100 
Q 875 3075 1250 3075 
L 2950 3075 
L 2950 3475 
L 1975 3475 
Q 1625 3475 1200 3450 
L 1200 3850 
Q 1625 3825 1950 3825 
L 2950 3825 
L 2950 4250 
L 1725 4250 
Q 1350 4250 900 4225 
L 900 4675 
Q 1350 4650 1725 4650 
L 2950 4650 
z
M 4375 750 
Q 5075 475 5875 100 
Q 5700 -125 5600 -375 
Q 4850 75 4150 350 
Q 4300 525 4375 750 
z
M 2375 400 
Q 2050 275 1662 50 
Q 1275 -175 800 -400 
Q 700 -175 450 25 
Q 900 150 1325 362 
Q 1750 575 2025 775 
Q 2200 550 2375 400 
z
" transform="scale(0.015625)"/>
      <path id="SimHei-8017" d="M 5675 4400 
Q 5500 4375 5150 4300 
Q 4800 4225 4475 4150 
L 4475 3225 
Q 5025 3300 5700 3400 
L 5725 2975 
Q 5250 2925 4475 2800 
L 4475 1975 
Q 4725 2000 5087 2050 
Q 5450 2100 5975 2175 
L 6025 1725 
Q 5500 1675 4475 1550 
L 4475 250 
Q 4475 0 4750 0 
L 5175 0 
Q 5375 0 5425 137 
Q 5475 275 5500 675 
Q 5725 525 6075 450 
Q 5925 -75 5812 -237 
Q 5700 -400 5425 -400 
L 4525 -400 
Q 4000 -400 4000 150 
L 4000 1475 
Q 3325 1400 2975 1325 
L 2925 1775 
Q 3400 1825 4000 1900 
L 4000 2750 
Q 3850 2750 3200 2625 
L 3150 3075 
Q 3400 3100 4000 3175 
L 4000 4050 
Q 3675 3975 3250 3850 
Q 3175 4125 3050 4325 
Q 3650 4400 4062 4487 
Q 4475 4575 4787 4675 
Q 5100 4775 5400 4925 
Q 5500 4675 5675 4400 
z
M 200 400 
Q 750 925 1012 1325 
Q 1275 1725 1425 2100 
Q 875 2100 400 2075 
L 400 2525 
Q 875 2500 1200 2500 
L 1525 2500 
L 1525 3050 
Q 1050 3050 575 3025 
L 575 3475 
Q 1050 3450 1525 3450 
L 1525 3950 
L 1250 3950 
Q 950 3950 500 3925 
L 500 4375 
Q 950 4350 1250 4350 
L 1525 4350 
Q 1525 4825 1500 5100 
L 2025 5100 
Q 2000 4825 2000 4350 
Q 2450 4350 2950 4375 
L 2950 3925 
Q 2450 3950 2000 3950 
L 2000 3450 
Q 2375 3450 2775 3475 
L 2775 3025 
Q 2350 3050 2000 3050 
L 2000 2500 
Q 2550 2500 2925 2525 
L 2925 2075 
Q 2525 2100 2000 2100 
L 2000 150 
Q 2000 -175 2025 -575 
L 1500 -575 
Q 1525 -175 1525 150 
L 1525 1350 
Q 1175 700 650 100 
Q 425 300 200 400 
z
M 2450 1750 
Q 2550 1575 2975 1000 
Q 2750 875 2550 675 
Q 2450 900 2075 1450 
Q 2225 1550 2450 1750 
z
" transform="scale(0.015625)"/>
      <path id="SimHei-5bf9" d="M 525 4250 
Q 900 4225 1400 4225 
L 2825 4225 
Q 2575 2625 2200 1750 
Q 2825 875 3125 400 
Q 2950 275 2725 75 
Q 2200 975 1950 1300 
Q 1650 775 1350 425 
Q 1050 75 600 -350 
Q 425 -125 200 -25 
Q 625 275 975 675 
Q 1325 1075 1650 1700 
Q 1050 2425 550 2900 
Q 700 3025 900 3225 
Q 1625 2425 1875 2150 
Q 2200 3050 2300 3825 
L 1400 3825 
Q 900 3825 525 3800 
L 525 4250 
z
M 2925 3700 
Q 3525 3675 3750 3675 
L 4825 3675 
L 4825 4425 
Q 4825 4750 4775 5125 
L 5350 5125 
Q 5325 4825 5325 4375 
L 5325 3675 
Q 5575 3675 6150 3700 
L 6150 3250 
Q 5575 3275 5325 3275 
L 5325 125 
Q 5350 -350 5012 -475 
Q 4675 -600 4250 -650 
Q 4175 -350 4025 -100 
Q 4575 -100 4712 -37 
Q 4850 25 4825 325 
L 4825 3275 
L 3775 3275 
Q 3550 3275 2925 3225 
L 2925 3700 
z
M 3450 2725 
Q 3875 1975 4175 1325 
Q 3850 1200 3700 1075 
Q 3475 1750 3050 2475 
Q 3225 2550 3450 2725 
z
" transform="scale(0.015625)"/>
      <path id="SimHei-6bd4" d="M 3775 5100 
Q 3750 4575 3750 4100 
L 3750 3050 
Q 4925 3600 5475 4175 
Q 5675 3900 5900 3675 
Q 5600 3500 5037 3187 
Q 4475 2875 3750 2550 
L 3750 450 
Q 3750 100 4050 100 
L 5000 100 
Q 5175 100 5262 250 
Q 5350 400 5450 900 
Q 5650 775 6025 675 
Q 5850 0 5650 -175 
Q 5450 -350 5225 -350 
L 3900 -350 
Q 3250 -350 3250 275 
L 3250 4000 
Q 3250 4550 3225 5100 
L 3775 5100 
z
M 1275 4975 
Q 1250 4575 1250 4000 
L 1250 3150 
L 1850 3150 
Q 2325 3150 2875 3175 
L 2875 2650 
Q 2325 2675 1850 2675 
L 1250 2675 
L 1250 475 
Q 1650 650 1962 812 
Q 2275 975 2850 1275 
Q 2900 950 2950 750 
Q 2375 475 1762 175 
Q 1150 -125 925 -325 
Q 750 -100 575 200 
Q 700 300 750 600 
L 750 3950 
Q 750 4550 725 4975 
L 1275 4975 
z
" transform="scale(0.015625)"/>
     </defs>
     <use xlink:href="#SimHei-4f18"/>
     <use xlink:href="#SimHei-5316" x="100"/>
     <use xlink:href="#SimHei-540e" x="200"/>
     <use xlink:href="#SimHei-7684" x="300"/>
     <use xlink:href="#SimHei-5b9e" x="400"/>
     <use xlink:href="#SimHei-73b0" x="500"/>
     <use xlink:href="#SimHei-4e0e" x="600"/>
     <use xlink:href="#SimHei-6734" x="700"/>
     <use xlink:href="#SimHei-7d20" x="800"/>
     <use xlink:href="#SimHei-5b9e" x="900"/>
     <use xlink:href="#SimHei-73b0" x="1000"/>
     <use xlink:href="#SimHei-8017" x="1100"/>
     <use xlink:href="#SimHei-65f6" x="1200"/>
     <use xlink:href="#SimHei-5bf9" x="1300"/>
     <use xlink:href="#SimHei-6bd4" x="1400"/>
    </g>
   </g>
   <g id="legend_1">
    <g id="patch_15">
     <path d="M 279 89.109688 
L 443 89.109688 
Q 445 89.109688 445 87.109688 
L 445 34.555 
Q 445 32.555 443 32.555 
L 279 32.555 
Q 277 32.555 277 34.555 
L 277 87.109688 
Q 277 89.109688 279 89.109688 
z
" style="fill: #ffffff; opacity: 0.8; stroke: #cccccc; stroke-linejoin: miter"/>
    </g>
    <g id="text_23">
     <!-- repair1 - 指坏掉一块磁盘时的情况 -->
     <g transform="translate(281 44.758125)scale(0.1 -0.1)">
      <defs>
       <path id="SimHei-20" transform="scale(0.015625)"/>
       <path id="SimHei-2d" d="M 2975 2125 
L 125 2125 
L 125 2525 
L 2975 2525 
L 2975 2125 
z
" transform="scale(0.015625)"/>
       <path id="SimHei-6307" d="M 5625 2225 
Q 5600 1925 5600 1350 
L 5600 300 
Q 5600 -225 5625 -525 
L 5125 -525 
L 5125 -125 
L 3300 -125 
L 3300 -625 
L 2800 -625 
Q 2825 -300 2825 300 
L 2825 1350 
Q 2825 1925 2800 2225 
L 5625 2225 
z
M 500 25 
Q 1075 -25 1175 37 
Q 1275 100 1275 275 
L 1275 1675 
Q 1050 1600 925 1537 
Q 800 1475 475 1275 
Q 400 1525 225 1800 
Q 625 1900 825 1975 
Q 1025 2050 1275 2125 
L 1275 3300 
L 1100 3300 
Q 775 3300 450 3275 
L 450 3725 
Q 750 3700 1100 3700 
L 1275 3700 
L 1275 4450 
Q 1275 4800 1250 5125 
L 1775 5125 
Q 1750 4850 1750 4450 
L 1750 3700 
Q 2075 3700 2425 3725 
L 2425 3275 
Q 2050 3300 1750 3300 
L 1750 2325 
Q 1850 2350 2025 2425 
L 2375 2575 
Q 2350 2300 2375 2100 
Q 2225 2050 2062 1987 
Q 1900 1925 1750 1850 
L 1750 100 
Q 1725 -200 1575 -337 
Q 1425 -475 675 -525 
Q 625 -250 500 25 
z
M 3325 5025 
Q 3300 4675 3300 4125 
Q 4125 4275 4512 4412 
Q 4900 4550 5225 4725 
Q 5325 4475 5575 4250 
Q 5450 4225 5237 4175 
Q 5025 4125 4725 4050 
Q 4425 3975 4037 3887 
Q 3650 3800 3300 3725 
L 3300 3175 
Q 3275 2925 3700 2925 
L 4925 2925 
Q 5300 2925 5387 3087 
Q 5475 3250 5550 3600 
Q 5750 3400 6050 3300 
Q 5825 2725 5700 2637 
Q 5575 2550 5275 2525 
L 3350 2525 
Q 3050 2525 2937 2687 
Q 2825 2850 2825 2975 
L 2825 4125 
Q 2825 4775 2800 5025 
L 3325 5025 
z
M 5125 275 
L 5125 875 
L 3300 875 
L 3300 275 
L 5125 275 
z
M 5125 1250 
L 5125 1825 
L 3300 1825 
L 3300 1250 
L 5125 1250 
z
" transform="scale(0.015625)"/>
       <path id="SimHei-574f" d="M 5075 4600 
Q 5475 4600 6050 4625 
L 6050 4150 
Q 5500 4175 5075 4175 
L 4600 4175 
Q 4375 3450 4400 3350 
L 4400 250 
Q 4400 -225 4425 -650 
L 3900 -650 
Q 3925 -250 3925 150 
L 3925 2325 
Q 3375 1250 2450 350 
Q 2350 500 2050 700 
Q 2525 1050 2837 1450 
Q 3150 1850 3450 2412 
Q 3750 2975 3862 3350 
Q 3975 3725 4075 4175 
L 3375 4175 
Q 2975 4175 2400 4150 
L 2400 4625 
Q 2975 4600 3375 4600 
L 5075 4600 
z
M 1175 3500 
L 1175 4225 
Q 1175 4675 1150 5050 
L 1675 5050 
Q 1650 4675 1650 4225 
L 1650 3500 
L 1825 3500 
Q 2125 3500 2500 3525 
L 2500 3050 
Q 2125 3075 1825 3075 
L 1650 3075 
L 1650 1425 
Q 1825 1475 2425 1775 
Q 2450 1450 2500 1275 
Q 2050 1125 1462 862 
Q 875 600 475 350 
Q 375 675 225 950 
Q 425 975 587 1037 
Q 750 1100 1175 1275 
L 1175 3075 
L 1075 3075 
Q 725 3075 325 3050 
L 325 3525 
Q 725 3500 1050 3500 
L 1175 3500 
z
M 5000 2975 
Q 5225 2650 5462 2300 
Q 5700 1950 6150 1200 
Q 5925 1075 5675 875 
Q 5325 1550 5100 1925 
Q 4875 2300 4600 2675 
Q 4750 2750 5000 2975 
z
" transform="scale(0.015625)"/>
       <path id="SimHei-6389" d="M 3750 4475 
Q 3750 4950 3725 5225 
L 4250 5225 
Q 4225 4925 4225 4625 
L 5075 4625 
Q 5600 4625 5900 4650 
L 5900 4200 
Q 5600 4225 5075 4225 
L 4225 4225 
L 4225 3725 
L 5700 3725 
Q 5675 3500 5675 2675 
Q 5675 1850 5700 1500 
L 4325 1500 
L 4325 925 
L 5125 925 
Q 5775 925 6100 950 
L 6100 475 
Q 5775 525 5200 525 
L 4325 525 
L 4325 50 
Q 4325 -325 4375 -650 
L 3825 -650 
Q 3850 -225 3850 50 
L 3850 525 
L 2975 525 
Q 2400 525 2100 475 
L 2100 950 
Q 2400 925 2975 925 
L 3850 925 
L 3850 1500 
L 2600 1500 
Q 2625 2075 2625 2700 
Q 2625 3325 2600 3725 
L 3750 3725 
L 3750 4475 
z
M 1225 1825 
Q 850 1675 500 1450 
Q 425 1750 250 2000 
Q 725 2100 1225 2275 
L 1225 3350 
Q 600 3350 325 3325 
L 325 3825 
Q 675 3800 1225 3800 
L 1225 4475 
Q 1225 4875 1175 5150 
L 1725 5150 
Q 1700 4825 1700 4475 
L 1700 3800 
Q 2200 3800 2375 3825 
L 2375 3325 
Q 2200 3350 1700 3350 
L 1700 2425 
Q 2050 2525 2325 2700 
Q 2325 2450 2350 2225 
Q 1975 2100 1700 2000 
L 1700 250 
Q 1700 -225 1487 -325 
Q 1275 -425 600 -500 
Q 575 -200 450 100 
Q 925 50 1075 87 
Q 1225 125 1225 375 
L 1225 1825 
z
M 5225 2825 
L 5225 3325 
L 3100 3325 
L 3100 2825 
L 5225 2825 
z
M 5225 1925 
L 5225 2425 
L 3100 2425 
L 3100 1925 
L 5225 1925 
z
" transform="scale(0.015625)"/>
       <path id="SimHei-4e00" d="M 4875 2675 
Q 5525 2675 6050 2700 
L 6050 2050 
Q 5525 2075 4900 2075 
L 1600 2075 
Q 950 2075 350 2050 
L 350 2700 
Q 950 2675 1600 2675 
L 4875 2675 
z
" transform="scale(0.015625)"/>
       <path id="SimHei-5757" d="M 3550 4050 
Q 3550 4800 3525 5175 
Q 3700 5125 4075 5075 
Q 4050 4900 4037 4650 
Q 4025 4400 4025 4050 
L 5425 4050 
Q 5400 3675 5400 3225 
L 5400 2200 
Q 5825 2200 6100 2225 
L 6100 1800 
Q 5725 1825 5425 1825 
L 4250 1825 
Q 4425 1425 4662 1062 
Q 4900 700 5275 350 
Q 5650 0 6175 -225 
Q 5975 -375 5775 -650 
Q 5550 -525 5187 -225 
Q 4825 75 4500 512 
Q 4175 950 3925 1500 
Q 3700 850 3400 462 
Q 3100 75 2837 -162 
Q 2575 -400 2175 -675 
Q 1975 -450 1800 -300 
Q 2100 -125 2425 125 
Q 2750 375 2987 662 
Q 3225 950 3350 1262 
Q 3475 1575 3500 1825 
L 2900 1825 
Q 2500 1825 2100 1800 
L 2100 2225 
Q 2500 2200 2900 2200 
L 3550 2200 
L 3550 3675 
L 3275 3675 
Q 2900 3675 2500 3625 
L 2500 4075 
Q 2875 4050 3275 4050 
L 3550 4050 
z
M 1125 3500 
L 1125 4250 
Q 1125 4650 1100 5050 
L 1600 5050 
Q 1575 4675 1575 4250 
L 1575 3500 
L 1775 3500 
Q 1950 3500 2350 3525 
L 2350 3100 
Q 1950 3125 1775 3125 
L 1575 3125 
L 1575 1225 
L 2475 1525 
L 2475 1100 
Q 2025 950 1437 725 
Q 850 500 450 325 
Q 300 700 200 875 
Q 475 925 712 987 
Q 950 1050 1125 1100 
L 1125 3125 
L 1025 3125 
Q 650 3125 325 3100 
L 325 3525 
Q 650 3500 1000 3500 
L 1125 3500 
z
M 4925 2200 
L 4925 3675 
L 4025 3675 
L 4025 2200 
L 4925 2200 
z
" transform="scale(0.015625)"/>
       <path id="SimHei-78c1" d="M 1700 4550 
Q 2150 4550 2425 4575 
L 2425 4125 
Q 2150 4150 1700 4150 
Q 1550 3425 1300 2750 
L 2325 2750 
Q 2275 2375 2275 1475 
Q 2275 600 2300 75 
L 1850 75 
L 1850 375 
L 1275 375 
L 1275 -250 
L 825 -250 
Q 875 350 875 650 
L 875 2050 
Q 775 1850 500 1525 
Q 400 1750 225 1925 
Q 500 2225 725 2637 
Q 950 3050 1062 3387 
Q 1175 3725 1225 4150 
Q 875 4150 475 4125 
L 475 4575 
Q 850 4550 1325 4550 
L 1700 4550 
z
M 3700 1250 
Q 3300 425 3000 -25 
L 3725 75 
Q 3675 400 3600 625 
Q 3800 700 4050 750 
Q 4225 25 4350 -575 
Q 3975 -600 3850 -675 
L 3800 -275 
Q 3450 -325 3150 -387 
Q 2850 -450 2650 -550 
Q 2500 -150 2425 -25 
Q 2525 25 2625 125 
Q 2725 225 2962 600 
Q 3200 975 3375 1475 
Q 2925 1425 2625 1300 
Q 2525 1600 2425 1775 
Q 2625 1900 2862 2362 
Q 3100 2825 3300 3575 
Q 3600 3375 3800 3325 
Q 3625 3075 3450 2700 
Q 3275 2325 3000 1775 
L 3525 1825 
Q 3750 2250 3875 2725 
Q 4125 2550 4325 2475 
L 3700 1250 
z
M 5175 1525 
Q 4575 1500 4400 1400 
Q 4325 1650 4225 1900 
Q 4425 2025 4587 2425 
Q 4750 2825 4900 3500 
Q 5125 3350 5425 3275 
Q 5325 3150 5200 2862 
Q 5075 2575 4775 1875 
L 5300 1925 
Q 5475 2300 5575 2650 
Q 5800 2525 6025 2425 
Q 5850 2075 5487 1250 
Q 5125 425 4950 100 
L 5500 200 
L 5350 750 
Q 5500 800 5775 875 
Q 6050 -150 6125 -450 
Q 5900 -500 5675 -575 
Q 5600 -250 5575 -175 
Q 5375 -200 5100 -262 
Q 4825 -325 4525 -450 
Q 4425 -200 4325 25 
Q 4500 75 4662 362 
Q 4825 650 5175 1525 
z
M 5575 5025 
Q 5525 4950 5387 4675 
Q 5250 4400 5100 4025 
L 5300 4025 
Q 5675 4025 6125 4050 
L 6125 3625 
Q 5675 3650 5300 3650 
L 3575 3650 
Q 3075 3650 2550 3625 
L 2550 4050 
Q 3100 4025 3575 4025 
L 4625 4025 
Q 4850 4500 5050 5225 
Q 5250 5125 5575 5025 
z
M 1850 750 
L 1850 2375 
L 1275 2375 
L 1275 750 
L 1850 750 
z
M 3950 4250 
Q 3750 4200 3525 4075 
Q 3350 4600 3150 5000 
Q 3350 5075 3550 5200 
Q 3825 4675 3950 4250 
z
" transform="scale(0.015625)"/>
       <path id="SimHei-76d8" d="M 5425 -125 
Q 5775 -125 6200 -100 
L 6200 -550 
Q 5450 -525 4750 -525 
L 1475 -525 
Q 700 -525 200 -550 
L 200 -100 
Q 625 -125 975 -125 
L 975 625 
Q 975 1025 950 1400 
L 5450 1400 
Q 5425 1025 5425 625 
L 5425 -125 
z
M 3925 2050 
Q 4325 2050 4462 2075 
Q 4600 2100 4600 2275 
L 4600 2825 
L 1975 2825 
Q 1900 2400 1750 2100 
Q 1600 1800 1250 1450 
Q 1075 1650 775 1775 
Q 1100 2000 1262 2250 
Q 1425 2500 1475 2825 
Q 800 2825 425 2800 
L 425 3275 
Q 925 3250 1500 3250 
L 1500 3950 
Q 1500 4275 1475 4625 
L 2450 4625 
Q 2550 4925 2600 5250 
Q 2950 5175 3225 5125 
Q 3150 5050 3087 4900 
Q 3025 4750 2975 4625 
L 5100 4625 
Q 5075 4225 5075 3800 
L 5075 3250 
Q 5650 3250 6025 3275 
L 6025 2800 
Q 5650 2825 5050 2825 
L 5050 2175 
Q 5050 1750 4800 1662 
Q 4550 1575 4150 1525 
Q 4125 1750 3925 2050 
z
M 4625 3250 
L 4625 4200 
L 2025 4200 
L 2025 3250 
L 4625 3250 
z
M 3625 1000 
L 2750 1000 
L 2750 -125 
L 3625 -125 
L 3625 1000 
z
M 4925 1000 
L 4050 1000 
L 4050 -125 
L 4925 -125 
L 4925 1000 
z
M 2325 1000 
L 1475 1000 
L 1475 -125 
L 2325 -125 
L 2325 1000 
z
M 3425 1775 
Q 3075 2075 2525 2300 
Q 2650 2500 2725 2675 
Q 3225 2450 3700 2200 
Q 3550 2050 3425 1775 
z
M 3500 3300 
Q 3125 3575 2750 3750 
Q 2900 3925 3000 4100 
Q 3350 3925 3775 3675 
Q 3625 3500 3500 3300 
z
" transform="scale(0.015625)"/>
       <path id="SimHei-60c5" d="M 2775 1475 
Q 2775 2050 2750 2525 
L 5600 2525 
Q 5575 2100 5575 1725 
L 5575 -150 
Q 5575 -425 5375 -500 
Q 5175 -575 4875 -625 
Q 4850 -400 4700 -150 
Q 5050 -150 5100 -75 
Q 5150 0 5150 475 
L 3225 475 
L 3225 -625 
L 2750 -625 
Q 2775 -50 2775 375 
L 2775 1475 
z
M 2375 3250 
Q 2975 3225 3475 3225 
L 3975 3225 
L 3975 3625 
L 3500 3625 
Q 3075 3625 2625 3600 
L 2625 4025 
Q 3075 4000 3500 4000 
L 3975 4000 
L 3975 4350 
L 3450 4350 
Q 3050 4350 2475 4325 
L 2475 4750 
Q 3075 4725 3450 4725 
L 3975 4725 
Q 3975 4975 3950 5225 
L 4475 5225 
Q 4450 4975 4450 4725 
L 5125 4725 
Q 5550 4725 5925 4750 
L 5925 4325 
Q 5550 4350 5125 4350 
L 4450 4350 
L 4450 4000 
L 4925 4000 
Q 5325 4000 5750 4025 
L 5750 3600 
Q 5300 3625 4925 3625 
L 4450 3625 
L 4450 3225 
L 5175 3225 
Q 5775 3225 6150 3250 
L 6150 2825 
Q 5775 2850 5150 2850 
L 3500 2850 
Q 2850 2850 2375 2825 
L 2375 3250 
z
M 1675 5225 
Q 1650 4800 1650 4400 
L 1650 425 
Q 1650 -100 1675 -600 
L 1150 -600 
Q 1200 -100 1200 425 
L 1200 4325 
Q 1200 4825 1150 5225 
L 1675 5225 
z
M 5125 850 
L 5125 1325 
L 3225 1325 
L 3225 850 
L 5125 850 
z
M 5125 1700 
L 5125 2150 
L 3225 2150 
L 3225 1700 
L 5125 1700 
z
M 1050 3900 
Q 1000 3675 725 2275 
Q 500 2350 250 2375 
Q 425 2750 575 3975 
Q 800 3925 1050 3900 
z
M 1975 3125 
Q 1925 3425 1775 3975 
Q 1950 4000 2200 4075 
Q 2350 3550 2450 3275 
Q 2175 3200 1975 3125 
z
" transform="scale(0.015625)"/>
       <path id="SimHei-51b5" d="M 5450 4875 
Q 5425 4500 5425 3675 
Q 5425 2850 5450 2375 
L 4575 2375 
L 4575 400 
Q 4575 50 4762 25 
Q 4950 0 5200 12 
Q 5450 25 5500 187 
Q 5550 350 5575 825 
Q 5850 675 6150 600 
Q 5975 -175 5775 -287 
Q 5575 -400 5175 -412 
Q 4775 -425 4437 -362 
Q 4100 -300 4100 200 
L 4100 2375 
L 3475 2375 
Q 3500 150 1600 -625 
Q 1525 -375 1275 -150 
Q 3000 375 3000 2375 
L 2325 2375 
Q 2350 2850 2350 3675 
Q 2350 4525 2325 4875 
L 5450 4875 
z
M 4900 2775 
L 4900 4475 
L 2850 4475 
L 2850 2775 
L 4900 2775 
z
M 2025 2200 
Q 1750 1725 1350 1000 
Q 950 275 775 0 
Q 525 175 300 300 
Q 800 975 1600 2500 
Q 1850 2300 2025 2200 
z
M 950 4950 
Q 1100 4775 1350 4462 
Q 1600 4150 1850 3800 
Q 1575 3625 1375 3450 
Q 1075 4025 525 4600 
Q 775 4825 950 4950 
z
" transform="scale(0.015625)"/>
      </defs>
      <use xlink:href="#SimHei-72"/>
      <use xlink:href="#SimHei-65" x="50"/>
      <use xlink:href="#SimHei-70" x="100"/>
      <use xlink:href="#SimHei-61" x="150"/>
      <use xlink:href="#SimHei-69" x="200"/>
      <use xlink:href="#SimHei-72" x="250"/>
      <use xlink:href="#SimHei-31" x="300"/>
      <use xlink:href="#SimHei-20" x="350"/>
      <use xlink:href="#SimHei-2d" x="400"/>
      <use xlink:href="#SimHei-20" x="450"/>
      <use xlink:href="#SimHei-6307" x="500"/>
      <use xlink:href="#SimHei-574f" x="600"/>
      <use xlink:href="#SimHei-6389" x="700"/>
      <use xlink:href="#SimHei-4e00" x="800"/>
      <use xlink:href="#SimHei-5757" x="900"/>
      <use xlink:href="#SimHei-78c1" x="1000"/>
      <use xlink:href="#SimHei-76d8" x="1100"/>
      <use xlink:href="#SimHei-65f6" x="1200"/>
      <use xlink:href="#SimHei-7684" x="1300"/>
      <use xlink:href="#SimHei-60c5" x="1400"/>
      <use xlink:href="#SimHei-51b5" x="1500"/>
     </g>
     <!-- repair2 - 指坏掉两块磁盘时的情况 -->
     <g transform="translate(281 55.851875)scale(0.1 -0.1)">
      <defs>
       <path id="SimHei-4e24" d="M 1700 825 
Q 1575 975 1325 1175 
Q 2025 1850 2250 3075 
L 1175 3075 
L 1175 -500 
L 675 -500 
Q 700 175 700 675 
L 700 2650 
Q 700 2975 675 3500 
L 2300 3500 
Q 2325 3925 2350 4475 
L 1125 4475 
Q 825 4475 525 4450 
L 525 4900 
Q 825 4875 1100 4875 
L 5250 4875 
Q 5500 4875 5975 4900 
L 5975 4450 
Q 5625 4475 5275 4475 
L 4300 4475 
Q 4300 4100 4250 3500 
L 5750 3500 
Q 5725 3050 5725 2725 
L 5725 250 
Q 5725 -175 5462 -300 
Q 5200 -425 4475 -500 
Q 4400 -150 4225 75 
Q 4975 50 5112 125 
Q 5250 200 5250 500 
L 5250 3075 
L 4200 3075 
Q 4150 2650 4050 2275 
Q 4750 1725 5125 1400 
Q 4900 1200 4750 1000 
Q 4500 1325 3950 1800 
Q 3625 1000 3250 475 
Q 3000 650 2775 725 
Q 3075 1050 3350 1637 
Q 3625 2225 3725 3075 
L 2725 3075 
Q 2650 2700 2575 2425 
Q 3075 2000 3275 1750 
Q 3100 1600 2900 1400 
Q 2625 1800 2425 2000 
Q 2150 1350 1700 825 
z
M 3775 3500 
Q 3800 4100 3800 4475 
L 2825 4475 
Q 2825 4100 2775 3500 
L 3775 3500 
z
" transform="scale(0.015625)"/>
      </defs>
      <use xlink:href="#SimHei-72"/>
      <use xlink:href="#SimHei-65" x="50"/>
      <use xlink:href="#SimHei-70" x="100"/>
      <use xlink:href="#SimHei-61" x="150"/>
      <use xlink:href="#SimHei-69" x="200"/>
      <use xlink:href="#SimHei-72" x="250"/>
      <use xlink:href="#SimHei-32" x="300"/>
      <use xlink:href="#SimHei-20" x="350"/>
      <use xlink:href="#SimHei-2d" x="400"/>
      <use xlink:href="#SimHei-20" x="450"/>
      <use xlink:href="#SimHei-6307" x="500"/>
      <use xlink:href="#SimHei-574f" x="600"/>
      <use xlink:href="#SimHei-6389" x="700"/>
      <use xlink:href="#SimHei-4e24" x="800"/>
      <use xlink:href="#SimHei-5757" x="900"/>
      <use xlink:href="#SimHei-78c1" x="1000"/>
      <use xlink:href="#SimHei-76d8" x="1100"/>
      <use xlink:href="#SimHei-65f6" x="1200"/>
      <use xlink:href="#SimHei-7684" x="1300"/>
      <use xlink:href="#SimHei-60c5" x="1400"/>
      <use xlink:href="#SimHei-51b5" x="1500"/>
     </g>
    </g>
    <g id="patch_16">
     <path d="M 337 69.83625 
L 357 69.83625 
L 357 62.83625 
L 337 62.83625 
z
" style="fill: #1f77b4"/>
    </g>
    <g id="text_24">
     <!-- 优化 -->
     <g transform="translate(365 69.83625)scale(0.1 -0.1)">
      <use xlink:href="#SimHei-4f18"/>
      <use xlink:href="#SimHei-5316" x="100"/>
     </g>
    </g>
    <g id="patch_17">
     <path d="M 337 83.859688 
L 357 83.859688 
L 357 76.859688 
L 337 76.859688 
z
" style="fill: #ff7f0e"/>
    </g>
    <g id="text_25">
     <!-- 朴素 -->
     <g transform="translate(365 83.859688)scale(0.1 -0.1)">
      <use xlink:href="#SimHei-6734"/>
      <use xlink:href="#SimHei-7d20" x="100"/>
     </g>
    </g>
   </g>
  </g>
 </g>
 <defs>
  <clipPath id="p6656774246">
   <rect x="41.29625" y="27.555" width="408.70375" height="291.56"/>
  </clipPath>
 </defs>
</svg>
