<?xml version="1.0" encoding="utf-8" standalone="no"?>
<!DOCTYPE svg PUBLIC "-//W3C//DTD SVG 1.1//EN"
  "http://www.w3.org/Graphics/SVG/1.1/DTD/svg11.dtd">
<svg xmlns:xlink="http://www.w3.org/1999/xlink" width="720pt" height="360pt" viewBox="0 0 720 360" xmlns="http://www.w3.org/2000/svg" version="1.1">
 <metadata>
  <rdf:RDF xmlns:dc="http://purl.org/dc/elements/1.1/" xmlns:cc="http://creativecommons.org/ns#" xmlns:rdf="http://www.w3.org/1999/02/22-rdf-syntax-ns#">
   <cc:Work>
    <dc:type rdf:resource="http://purl.org/dc/dcmitype/StillImage"/>
    <dc:date>2022-12-28T17:23:02.815234</dc:date>
    <dc:format>image/svg+xml</dc:format>
    <dc:creator>
     <cc:Agent>
      <dc:title>Matplotlib v3.5.1, https://matplotlib.org/</dc:title>
     </cc:Agent>
    </dc:creator>
   </cc:Work>
  </rdf:RDF>
 </metadata>
 <defs>
  <style type="text/css">*{stroke-linejoin: round; stroke-linecap: butt}</style>
 </defs>
 <g id="figure_1">
  <g id="patch_1">
   <path d="M 0 360 
L 720 360 
L 720 0 
L 0 0 
z
" style="fill: #ffffff"/>
  </g>
  <g id="axes_1">
   <g id="patch_2">
    <path d="M 512.761023 154.152418 
L 479.847346 160.482253 
" style="fill: none; stroke: #000000; stroke-linecap: round"/>
   </g>
   <g id="text_1">
    <g id="patch_3">
     <path d="M 515.088 161.099207 
L 624.288 161.099207 
L 624.288 143.867957 
L 515.088 143.867957 
z
" style="fill: #ffffff; stroke: #000000; stroke-width: 0.72; stroke-linejoin: miter"/>
    </g>
    <!-- 28.27% _IO_fwrite -->
    <g transform="translate(518.688 155.905457)scale(0.12 -0.12)">
     <defs>
      <path id="SimHei-32" d="M 300 250 
Q 325 625 650 925 
Q 975 1225 1475 1862 
Q 1975 2500 2125 2850 
Q 2275 3200 2237 3450 
Q 2200 3700 2000 3862 
Q 1800 4025 1537 4000 
Q 1275 3975 1037 3800 
Q 800 3625 675 3275 
L 200 3350 
Q 400 3925 712 4187 
Q 1025 4450 1450 4475 
Q 1700 4500 1900 4462 
Q 2100 4425 2312 4287 
Q 2525 4150 2662 3875 
Q 2800 3600 2762 3212 
Q 2725 2825 2375 2287 
Q 2025 1750 1025 600 
L 2825 600 
L 2825 150 
L 300 150 
L 300 250 
z
" transform="scale(0.015625)"/>
      <path id="SimHei-38" d="M 175 1375 
Q 175 1675 325 1962 
Q 475 2250 825 2425 
Q 525 2600 425 2812 
Q 325 3025 312 3300 
Q 300 3575 387 3775 
Q 475 3975 650 4150 
Q 825 4325 1037 4387 
Q 1250 4450 1500 4450 
Q 1750 4450 1950 4400 
Q 2150 4350 2375 4187 
Q 2600 4025 2700 3725 
Q 2800 3425 2687 3025 
Q 2575 2625 2100 2400 
Q 2525 2275 2700 2012 
Q 2875 1750 2875 1375 
Q 2875 1000 2762 775 
Q 2650 550 2512 400 
Q 2375 250 2137 162 
Q 1900 75 1537 75 
Q 1175 75 912 162 
Q 650 250 475 425 
Q 300 600 237 837 
Q 175 1075 175 1375 
z
M 687 1400 
Q 675 1100 787 875 
Q 900 650 1200 587 
Q 1500 525 1825 600 
Q 2150 675 2275 950 
Q 2400 1225 2362 1500 
Q 2325 1775 2050 1962 
Q 1775 2150 1450 2125 
Q 1125 2100 912 1900 
Q 700 1700 687 1400 
z
M 775 3350 
Q 775 3100 950 2875 
Q 1125 2650 1500 2650 
Q 1875 2650 2062 2875 
Q 2250 3100 2237 3412 
Q 2225 3725 2012 3875 
Q 1800 4025 1437 4000 
Q 1075 3975 925 3787 
Q 775 3600 775 3350 
z
" transform="scale(0.015625)"/>
      <path id="SimHei-2e" d="M 1075 125 
L 500 125 
L 500 675 
L 1075 675 
L 1075 125 
z
" transform="scale(0.015625)"/>
      <path id="SimHei-37" d="M 850 150 
Q 1300 2050 2425 3925 
L 275 3925 
L 275 4375 
L 2950 4375 
L 2950 3950 
Q 1775 2050 1400 150 
L 850 150 
z
" transform="scale(0.015625)"/>
      <path id="SimHei-25" d="M 1400 3325 
Q 1400 2600 1187 2400 
Q 975 2200 775 2200 
Q 575 2200 362 2400 
Q 150 2600 150 3325 
Q 150 4050 362 4250 
Q 575 4450 775 4450 
Q 975 4450 1187 4250 
Q 1400 4050 1400 3325 
z
M 2625 4375 
L 700 75 
L 500 150 
L 2425 4450 
L 2625 4375 
z
M 2975 1200 
Q 2975 475 2762 275 
Q 2550 75 2350 75 
Q 2150 75 1937 275 
Q 1725 475 1725 1200 
Q 1725 1925 1937 2125 
Q 2150 2325 2350 2325 
Q 2550 2325 2762 2125 
Q 2975 1925 2975 1200 
z
M 1000 3325 
Q 1000 3775 950 3925 
Q 900 4075 775 4075 
Q 650 4075 600 3925 
Q 550 3775 550 3325 
Q 550 2875 600 2725 
Q 650 2575 775 2575 
Q 900 2575 950 2725 
Q 1000 2875 1000 3325 
z
M 2575 1200 
Q 2575 1650 2525 1800 
Q 2475 1950 2350 1950 
Q 2225 1950 2175 1800 
Q 2125 1650 2125 1200 
Q 2125 750 2175 600 
Q 2225 450 2350 450 
Q 2475 450 2525 600 
Q 2575 750 2575 1200 
z
" transform="scale(0.015625)"/>
      <path id="SimHei-20" transform="scale(0.015625)"/>
      <path id="SimHei-5f" d="M 3150 -850 
L 0 -850 
L 0 -550 
L 3150 -550 
L 3150 -850 
z
" transform="scale(0.015625)"/>
      <path id="SimHei-49" d="M 1850 125 
L 1275 125 
L 1275 4400 
L 1850 4400 
L 1850 125 
z
" transform="scale(0.015625)"/>
      <path id="SimHei-4f" d="M 2950 2275 
Q 2950 1100 2587 587 
Q 2225 75 1575 75 
Q 925 75 550 587 
Q 175 1100 175 2275 
Q 175 3450 550 3950 
Q 925 4450 1575 4450 
Q 2225 4450 2587 3950 
Q 2950 3450 2950 2275 
z
M 2350 2275 
Q 2350 3325 2125 3650 
Q 1900 3975 1575 3975 
Q 1250 3975 1012 3650 
Q 775 3325 775 2275 
Q 775 1225 1012 887 
Q 1250 550 1575 550 
Q 1900 550 2125 887 
Q 2350 1225 2350 2275 
z
" transform="scale(0.015625)"/>
      <path id="SimHei-66" d="M 2850 3825 
Q 2725 3900 2550 3950 
Q 2375 4000 2100 4000 
Q 1825 4000 1725 3862 
Q 1625 3725 1625 3525 
L 1625 2925 
L 2650 2925 
L 2650 2525 
L 1625 2525 
L 1625 125 
L 1125 125 
L 1125 2525 
L 275 2525 
L 275 2925 
L 1125 2925 
L 1125 3500 
Q 1125 3950 1400 4200 
Q 1675 4450 2125 4450 
Q 2400 4450 2562 4412 
Q 2725 4375 2850 4325 
L 2850 3825 
z
" transform="scale(0.015625)"/>
      <path id="SimHei-77" d="M 3075 2925 
L 2450 75 
L 1975 75 
L 1575 2250 
L 1525 2250 
L 1125 75 
L 650 75 
L 25 2925 
L 550 2925 
L 875 1050 
L 925 1050 
L 1275 2925 
L 1825 2925 
L 2175 1050 
L 2225 1050 
L 2550 2925 
L 3075 2925 
z
" transform="scale(0.015625)"/>
      <path id="SimHei-72" d="M 2500 2425 
Q 2025 2500 1700 2287 
Q 1375 2075 1150 1550 
L 1150 125 
L 650 125 
L 650 2925 
L 1150 2925 
L 1150 2200 
Q 1375 2600 1712 2787 
Q 2050 2975 2500 2975 
L 2500 2425 
z
" transform="scale(0.015625)"/>
      <path id="SimHei-69" d="M 1800 3725 
L 1300 3725 
L 1300 4375 
L 1800 4375 
L 1800 3725 
z
M 1800 125 
L 1300 125 
L 1300 2925 
L 1800 2925 
L 1800 125 
z
" transform="scale(0.015625)"/>
      <path id="SimHei-74" d="M 2750 200 
Q 2625 150 2462 112 
Q 2300 75 2025 75 
Q 1575 75 1300 325 
Q 1025 575 1025 1025 
L 1025 2525 
L 175 2525 
L 175 2925 
L 1025 2925 
L 1025 3900 
L 1525 3900 
L 1525 2925 
L 2550 2925 
L 2550 2525 
L 1525 2525 
L 1525 1000 
Q 1525 800 1625 662 
Q 1725 525 2000 525 
Q 2275 525 2450 575 
Q 2625 625 2750 700 
L 2750 200 
z
" transform="scale(0.015625)"/>
      <path id="SimHei-65" d="M 2850 1075 
Q 2800 625 2450 350 
Q 2100 75 1625 75 
Q 1025 75 637 462 
Q 250 850 250 1525 
Q 250 2200 637 2587 
Q 1025 2975 1625 2975 
Q 2150 2975 2487 2637 
Q 2825 2300 2825 1525 
L 800 1525 
Q 800 975 1037 750 
Q 1275 525 1625 525 
Q 1900 525 2075 662 
Q 2250 800 2300 1075 
L 2850 1075 
z
M 2250 1925 
Q 2200 2275 2025 2412 
Q 1850 2550 1575 2550 
Q 1325 2550 1125 2412 
Q 925 2275 825 1925 
L 2250 1925 
z
" transform="scale(0.015625)"/>
     </defs>
     <use xlink:href="#SimHei-32"/>
     <use xlink:href="#SimHei-38" x="50"/>
     <use xlink:href="#SimHei-2e" x="100"/>
     <use xlink:href="#SimHei-32" x="150"/>
     <use xlink:href="#SimHei-37" x="200"/>
     <use xlink:href="#SimHei-25" x="250"/>
     <use xlink:href="#SimHei-20" x="300"/>
     <use xlink:href="#SimHei-5f" x="350"/>
     <use xlink:href="#SimHei-49" x="400"/>
     <use xlink:href="#SimHei-4f" x="450"/>
     <use xlink:href="#SimHei-5f" x="500"/>
     <use xlink:href="#SimHei-66" x="550"/>
     <use xlink:href="#SimHei-77" x="600"/>
     <use xlink:href="#SimHei-72" x="650"/>
     <use xlink:href="#SimHei-69" x="700"/>
     <use xlink:href="#SimHei-74" x="750"/>
     <use xlink:href="#SimHei-65" x="800"/>
    </g>
   </g>
   <g id="patch_4">
    <path d="M 225.271525 29.215984 
L 340.450188 29.215984 
L 348.239352 70.845046 
" style="fill: none; stroke: #000000; stroke-linecap: round"/>
   </g>
   <g id="text_2">
    <g id="patch_5">
     <path d="M 95.712 37.831609 
L 222.912 37.831609 
L 222.912 20.600359 
L 95.712 20.600359 
z
" style="fill: #ffffff; stroke: #000000; stroke-width: 0.72; stroke-linejoin: miter"/>
    </g>
    <!-- 21.57% cook_chunk_r2 -->
    <g transform="translate(99.312 32.637859)scale(0.12 -0.12)">
     <defs>
      <path id="SimHei-31" d="M 1400 3600 
Q 1075 3275 575 2975 
L 575 3450 
Q 1200 3875 1600 4450 
L 1900 4450 
L 1900 150 
L 1400 150 
L 1400 3600 
z
" transform="scale(0.015625)"/>
      <path id="SimHei-35" d="M 550 1325 
Q 725 650 1150 575 
Q 1575 500 1837 662 
Q 2100 825 2212 1087 
Q 2325 1350 2312 1675 
Q 2300 2000 2137 2225 
Q 1975 2450 1725 2525 
Q 1475 2600 1162 2525 
Q 850 2450 650 2175 
L 225 2225 
Q 275 2375 700 4375 
L 2675 4375 
L 2675 3925 
L 1075 3925 
Q 950 3250 825 2850 
Q 1200 3025 1525 3012 
Q 1850 3000 2150 2862 
Q 2450 2725 2587 2487 
Q 2725 2250 2787 2012 
Q 2850 1775 2837 1500 
Q 2825 1225 2725 937 
Q 2625 650 2425 462 
Q 2225 275 1937 162 
Q 1650 50 1275 75 
Q 900 100 562 350 
Q 225 600 100 1200 
L 550 1325 
z
" transform="scale(0.015625)"/>
      <path id="SimHei-63" d="M 2850 1250 
Q 2850 725 2487 400 
Q 2125 75 1575 75 
Q 1025 75 625 462 
Q 225 850 225 1525 
Q 225 2200 625 2587 
Q 1025 2975 1575 2975 
Q 2125 2975 2450 2687 
Q 2775 2400 2775 2000 
L 2225 2000 
Q 2200 2300 2012 2412 
Q 1825 2525 1575 2525 
Q 1275 2525 1025 2287 
Q 775 2050 775 1525 
Q 775 1000 1025 762 
Q 1275 525 1575 525 
Q 1900 525 2100 700 
Q 2300 875 2300 1250 
L 2850 1250 
z
" transform="scale(0.015625)"/>
      <path id="SimHei-6f" d="M 2925 1525 
Q 2925 875 2525 475 
Q 2125 75 1575 75 
Q 1025 75 625 475 
Q 225 875 225 1525 
Q 225 2175 625 2575 
Q 1025 2975 1575 2975 
Q 2125 2975 2525 2575 
Q 2925 2175 2925 1525 
z
M 2375 1525 
Q 2375 2025 2125 2275 
Q 1875 2525 1575 2525 
Q 1275 2525 1025 2275 
Q 775 2025 775 1525 
Q 775 1025 1025 775 
Q 1275 525 1575 525 
Q 1875 525 2125 775 
Q 2375 1025 2375 1525 
z
" transform="scale(0.015625)"/>
      <path id="SimHei-6b" d="M 2925 125 
L 2350 125 
L 1450 1650 
L 875 1100 
L 875 125 
L 375 125 
L 375 4400 
L 875 4400 
L 875 1675 
L 2125 2925 
L 2750 2925 
L 1775 1975 
L 2925 125 
z
" transform="scale(0.015625)"/>
      <path id="SimHei-68" d="M 2800 125 
L 2300 125 
L 2300 1925 
Q 2300 2225 2150 2400 
Q 2000 2575 1750 2575 
Q 1425 2575 1137 2237 
Q 850 1900 850 1400 
L 850 125 
L 350 125 
L 350 4400 
L 850 4400 
L 850 2400 
Q 1050 2675 1287 2825 
Q 1525 2975 1900 2975 
Q 2350 2975 2575 2725 
Q 2800 2475 2800 2100 
L 2800 125 
z
" transform="scale(0.015625)"/>
      <path id="SimHei-75" d="M 2800 125 
L 2300 125 
L 2300 650 
Q 2100 375 1862 225 
Q 1625 75 1250 75 
Q 800 75 575 325 
Q 350 575 350 950 
L 350 2925 
L 850 2925 
L 850 1125 
Q 850 825 1000 650 
Q 1150 475 1400 475 
Q 1725 475 2012 812 
Q 2300 1150 2300 1650 
L 2300 2925 
L 2800 2925 
L 2800 125 
z
" transform="scale(0.015625)"/>
      <path id="SimHei-6e" d="M 2800 125 
L 2300 125 
L 2300 1925 
Q 2300 2225 2150 2400 
Q 2000 2575 1750 2575 
Q 1425 2575 1137 2237 
Q 850 1900 850 1400 
L 850 125 
L 350 125 
L 350 2925 
L 850 2925 
L 850 2400 
Q 1050 2675 1287 2825 
Q 1525 2975 1900 2975 
Q 2350 2975 2575 2725 
Q 2800 2475 2800 2100 
L 2800 125 
z
" transform="scale(0.015625)"/>
     </defs>
     <use xlink:href="#SimHei-32"/>
     <use xlink:href="#SimHei-31" x="50"/>
     <use xlink:href="#SimHei-2e" x="100"/>
     <use xlink:href="#SimHei-35" x="150"/>
     <use xlink:href="#SimHei-37" x="200"/>
     <use xlink:href="#SimHei-25" x="250"/>
     <use xlink:href="#SimHei-20" x="300"/>
     <use xlink:href="#SimHei-63" x="350"/>
     <use xlink:href="#SimHei-6f" x="400"/>
     <use xlink:href="#SimHei-6f" x="450"/>
     <use xlink:href="#SimHei-6b" x="500"/>
     <use xlink:href="#SimHei-5f" x="550"/>
     <use xlink:href="#SimHei-63" x="600"/>
     <use xlink:href="#SimHei-68" x="650"/>
     <use xlink:href="#SimHei-75" x="700"/>
     <use xlink:href="#SimHei-6e" x="750"/>
     <use xlink:href="#SimHei-6b" x="800"/>
     <use xlink:href="#SimHei-5f" x="850"/>
     <use xlink:href="#SimHei-72" x="900"/>
     <use xlink:href="#SimHei-32" x="950"/>
    </g>
   </g>
   <g id="patch_6">
    <path d="M 225.272182 122.295182 
L 225.625838 122.295182 
L 264.742202 138.529711 
" style="fill: none; stroke: #000000; stroke-linecap: round"/>
   </g>
   <g id="text_3">
    <g id="patch_7">
     <path d="M 95.712 130.910807 
L 222.912 130.910807 
L 222.912 113.679557 
L 95.712 113.679557 
z
" style="fill: #ffffff; stroke: #000000; stroke-width: 0.72; stroke-linejoin: miter"/>
    </g>
    <!-- 10.02% cook_chunk_r1 -->
    <g transform="translate(99.312 125.717057)scale(0.12 -0.12)">
     <defs>
      <path id="SimHei-30" d="M 225 2537 
Q 250 3200 412 3587 
Q 575 3975 875 4225 
Q 1175 4475 1612 4475 
Q 2050 4475 2375 4112 
Q 2700 3750 2800 3200 
Q 2900 2650 2862 1937 
Q 2825 1225 2612 775 
Q 2400 325 1975 150 
Q 1550 -25 1125 187 
Q 700 400 525 750 
Q 350 1100 275 1487 
Q 200 1875 225 2537 
z
M 750 2687 
Q 675 2000 800 1462 
Q 925 925 1212 700 
Q 1500 475 1800 612 
Q 2100 750 2237 1162 
Q 2375 1575 2375 2062 
Q 2375 2550 2337 2950 
Q 2300 3350 2112 3675 
Q 1925 4000 1612 4012 
Q 1300 4025 1062 3700 
Q 825 3375 750 2687 
z
" transform="scale(0.015625)"/>
     </defs>
     <use xlink:href="#SimHei-31"/>
     <use xlink:href="#SimHei-30" x="50"/>
     <use xlink:href="#SimHei-2e" x="100"/>
     <use xlink:href="#SimHei-30" x="150"/>
     <use xlink:href="#SimHei-32" x="200"/>
     <use xlink:href="#SimHei-25" x="250"/>
     <use xlink:href="#SimHei-20" x="300"/>
     <use xlink:href="#SimHei-63" x="350"/>
     <use xlink:href="#SimHei-6f" x="400"/>
     <use xlink:href="#SimHei-6f" x="450"/>
     <use xlink:href="#SimHei-6b" x="500"/>
     <use xlink:href="#SimHei-5f" x="550"/>
     <use xlink:href="#SimHei-63" x="600"/>
     <use xlink:href="#SimHei-68" x="650"/>
     <use xlink:href="#SimHei-75" x="700"/>
     <use xlink:href="#SimHei-6e" x="750"/>
     <use xlink:href="#SimHei-6b" x="800"/>
     <use xlink:href="#SimHei-5f" x="850"/>
     <use xlink:href="#SimHei-72" x="900"/>
     <use xlink:href="#SimHei-31" x="950"/>
    </g>
   </g>
   <g id="patch_8">
    <path d="M 225.255802 198.436864 
L 256.866047 194.778314 
" style="fill: none; stroke: #000000; stroke-linecap: round"/>
   </g>
   <g id="text_4">
    <g id="patch_9">
     <path d="M 125.712 208.216064 
L 222.912 208.216064 
L 222.912 191.078564 
L 125.712 191.078564 
z
" style="fill: #ffffff; stroke: #000000; stroke-width: 0.72; stroke-linejoin: miter"/>
    </g>
    <!-- 6.17% _IO_fread -->
    <g transform="translate(129.312 203.022314)scale(0.12 -0.12)">
     <defs>
      <path id="SimHei-36" d="M 250 1612 
Q 275 1975 387 2225 
Q 500 2475 725 2850 
L 1750 4450 
L 2325 4450 
L 1275 2800 
Q 1950 2975 2350 2750 
Q 2750 2525 2887 2237 
Q 3025 1950 3037 1612 
Q 3050 1275 2937 950 
Q 2825 625 2537 362 
Q 2250 100 1737 75 
Q 1225 50 862 262 
Q 500 475 362 862 
Q 225 1250 250 1612 
z
M 1025 787 
Q 1250 550 1625 525 
Q 2000 500 2250 775 
Q 2500 1050 2500 1575 
Q 2500 2100 2187 2300 
Q 1875 2500 1487 2450 
Q 1100 2400 925 2075 
Q 750 1750 775 1387 
Q 800 1025 1025 787 
z
" transform="scale(0.015625)"/>
      <path id="SimHei-61" d="M 2875 125 
L 2275 125 
Q 2225 175 2200 262 
Q 2175 350 2175 475 
Q 2000 275 1750 175 
Q 1500 75 1225 75 
Q 825 75 550 275 
Q 275 475 275 850 
Q 275 1225 525 1450 
Q 775 1675 1300 1750 
Q 1650 1800 1912 1875 
Q 2175 1950 2175 2075 
Q 2175 2225 2062 2375 
Q 1950 2525 1575 2525 
Q 1275 2525 1137 2412 
Q 1000 2300 950 2100 
L 400 2100 
Q 450 2500 762 2737 
Q 1075 2975 1575 2975 
Q 2125 2975 2400 2725 
Q 2675 2475 2675 2025 
L 2675 650 
Q 2675 500 2725 375 
Q 2775 250 2875 125 
z
M 2175 1050 
L 2175 1550 
Q 2025 1500 1887 1462 
Q 1750 1425 1425 1375 
Q 1050 1325 937 1200 
Q 825 1075 825 900 
Q 825 750 937 637 
Q 1050 525 1275 525 
Q 1500 525 1762 650 
Q 2025 775 2175 1050 
z
" transform="scale(0.015625)"/>
      <path id="SimHei-64" d="M 2750 125 
L 2250 125 
L 2250 500 
Q 2100 275 1900 175 
Q 1700 75 1425 75 
Q 925 75 575 437 
Q 225 800 225 1525 
Q 225 2250 575 2625 
Q 925 3000 1425 3000 
Q 1700 3000 1900 2887 
Q 2100 2775 2250 2550 
L 2250 4400 
L 2750 4400 
L 2750 125 
z
M 2250 1525 
Q 2250 2000 2037 2275 
Q 1825 2550 1525 2550 
Q 1150 2550 962 2275 
Q 775 2000 775 1525 
Q 775 1050 962 787 
Q 1150 525 1525 525 
Q 1825 525 2037 787 
Q 2250 1050 2250 1525 
z
" transform="scale(0.015625)"/>
     </defs>
     <use xlink:href="#SimHei-36"/>
     <use xlink:href="#SimHei-2e" x="50"/>
     <use xlink:href="#SimHei-31" x="100"/>
     <use xlink:href="#SimHei-37" x="150"/>
     <use xlink:href="#SimHei-25" x="200"/>
     <use xlink:href="#SimHei-20" x="250"/>
     <use xlink:href="#SimHei-5f" x="300"/>
     <use xlink:href="#SimHei-49" x="350"/>
     <use xlink:href="#SimHei-4f" x="400"/>
     <use xlink:href="#SimHei-5f" x="450"/>
     <use xlink:href="#SimHei-66" x="500"/>
     <use xlink:href="#SimHei-72" x="550"/>
     <use xlink:href="#SimHei-65" x="600"/>
     <use xlink:href="#SimHei-61" x="650"/>
     <use xlink:href="#SimHei-64" x="700"/>
    </g>
   </g>
   <g id="patch_10">
    <path d="M 225.265301 239.744238 
L 264.30736 224.005085 
" style="fill: none; stroke: #000000; stroke-linecap: round"/>
   </g>
   <g id="text_5">
    <g id="patch_11">
     <path d="M 65.712 248.456017 
L 222.912 248.456017 
L 222.912 231.224767 
L 65.712 231.224767 
z
" style="fill: #ffffff; stroke: #000000; stroke-width: 0.72; stroke-linejoin: miter"/>
    </g>
    <!-- 2.36% write_cookedd_chunk -->
    <g transform="translate(69.312 243.262267)scale(0.12 -0.12)">
     <defs>
      <path id="SimHei-33" d="M 250 1225 
L 700 1300 
Q 800 975 1025 762 
Q 1250 550 1587 562 
Q 1925 575 2125 837 
Q 2325 1100 2300 1437 
Q 2275 1775 2037 1962 
Q 1800 2150 1275 2225 
L 1275 2550 
Q 1800 2600 2037 2825 
Q 2275 3050 2250 3412 
Q 2225 3775 1925 3937 
Q 1625 4100 1287 3975 
Q 950 3850 750 3275 
L 300 3350 
Q 450 3800 712 4100 
Q 975 4400 1425 4450 
Q 1875 4500 2212 4337 
Q 2550 4175 2687 3837 
Q 2825 3500 2725 3100 
Q 2625 2700 2150 2400 
Q 2500 2250 2687 1950 
Q 2875 1650 2812 1162 
Q 2750 675 2375 375 
Q 2000 75 1525 87 
Q 1050 100 700 387 
Q 350 675 250 1225 
z
" transform="scale(0.015625)"/>
     </defs>
     <use xlink:href="#SimHei-32"/>
     <use xlink:href="#SimHei-2e" x="50"/>
     <use xlink:href="#SimHei-33" x="100"/>
     <use xlink:href="#SimHei-36" x="150"/>
     <use xlink:href="#SimHei-25" x="200"/>
     <use xlink:href="#SimHei-20" x="250"/>
     <use xlink:href="#SimHei-77" x="300"/>
     <use xlink:href="#SimHei-72" x="350"/>
     <use xlink:href="#SimHei-69" x="400"/>
     <use xlink:href="#SimHei-74" x="450"/>
     <use xlink:href="#SimHei-65" x="500"/>
     <use xlink:href="#SimHei-5f" x="550"/>
     <use xlink:href="#SimHei-63" x="600"/>
     <use xlink:href="#SimHei-6f" x="650"/>
     <use xlink:href="#SimHei-6f" x="700"/>
     <use xlink:href="#SimHei-6b" x="750"/>
     <use xlink:href="#SimHei-65" x="800"/>
     <use xlink:href="#SimHei-64" x="850"/>
     <use xlink:href="#SimHei-64" x="900"/>
     <use xlink:href="#SimHei-5f" x="950"/>
     <use xlink:href="#SimHei-63" x="1000"/>
     <use xlink:href="#SimHei-68" x="1050"/>
     <use xlink:href="#SimHei-75" x="1100"/>
     <use xlink:href="#SimHei-6e" x="1150"/>
     <use xlink:href="#SimHei-6b" x="1200"/>
    </g>
   </g>
   <g id="patch_12">
    <path d="M 225.269282 335.90836 
L 350.356306 335.90836 
L 355.442812 293.863415 
" style="fill: none; stroke: #000000; stroke-linecap: round"/>
   </g>
   <g id="text_6">
    <g id="patch_13">
     <path d="M 137.712 344.38336 
L 222.912 344.38336 
L 222.912 327.43336 
L 137.712 327.43336 
z
" style="fill: #ffffff; stroke: #000000; stroke-width: 0.72; stroke-linejoin: miter"/>
    </g>
    <!-- ??.??% Others -->
    <g transform="translate(141.312 339.28336)scale(0.12 -0.12)">
     <defs>
      <path id="SimHei-3f" d="M 2725 3375 
Q 2725 3050 2575 2775 
Q 2425 2500 2175 2300 
Q 1925 2100 1825 1900 
Q 1725 1700 1725 1625 
L 1725 1450 
L 1275 1450 
L 1275 1700 
Q 1275 1925 1387 2137 
Q 1500 2350 1775 2600 
Q 1975 2775 2050 2962 
Q 2125 3150 2125 3325 
Q 2125 3650 1975 3812 
Q 1825 3975 1550 3975 
Q 1275 3975 1087 3762 
Q 900 3550 900 3075 
L 325 3075 
Q 350 3775 700 4112 
Q 1050 4450 1550 4450 
Q 2100 4450 2412 4150 
Q 2725 3850 2725 3375 
z
M 1775 125 
L 1225 125 
L 1225 725 
L 1775 725 
L 1775 125 
z
" transform="scale(0.015625)"/>
      <path id="SimHei-73" d="M 2750 900 
Q 2750 500 2437 287 
Q 2125 75 1650 75 
Q 1050 75 725 312 
Q 400 550 400 1000 
L 900 1000 
Q 900 700 1112 600 
Q 1325 500 1625 500 
Q 1925 500 2075 612 
Q 2225 725 2225 900 
Q 2225 1025 2100 1150 
Q 1975 1275 1475 1350 
Q 900 1425 687 1637 
Q 475 1850 475 2200 
Q 475 2500 762 2737 
Q 1050 2975 1600 2975 
Q 2100 2975 2387 2750 
Q 2675 2525 2675 2150 
L 2175 2150 
Q 2175 2375 2012 2462 
Q 1850 2550 1600 2550 
Q 1275 2550 1137 2437 
Q 1000 2325 1000 2175 
Q 1000 2000 1125 1900 
Q 1250 1800 1650 1750 
Q 2300 1650 2525 1437 
Q 2750 1225 2750 900 
z
" transform="scale(0.015625)"/>
     </defs>
     <use xlink:href="#SimHei-3f"/>
     <use xlink:href="#SimHei-3f" x="50"/>
     <use xlink:href="#SimHei-2e" x="100"/>
     <use xlink:href="#SimHei-3f" x="150"/>
     <use xlink:href="#SimHei-3f" x="200"/>
     <use xlink:href="#SimHei-25" x="250"/>
     <use xlink:href="#SimHei-20" x="300"/>
     <use xlink:href="#SimHei-4f" x="350"/>
     <use xlink:href="#SimHei-74" x="400"/>
     <use xlink:href="#SimHei-68" x="450"/>
     <use xlink:href="#SimHei-65" x="500"/>
     <use xlink:href="#SimHei-72" x="550"/>
     <use xlink:href="#SimHei-73" x="600"/>
    </g>
   </g>
   <g id="patch_14">
    <path d="M 453.939008 253.07229 
C 464.531979 240.448078 472.178471 225.619621 476.320539 209.668915 
C 480.462606 193.718208 480.996991 177.042885 477.884702 160.859701 
C 474.772413 144.676518 468.091034 129.388903 458.328091 116.112356 
C 448.565148 102.835809 435.964018 91.901299 421.444176 84.10669 
L 395.222088 132.953345 
C 402.482009 136.85065 408.782574 142.317905 413.664046 148.956178 
C 418.545517 155.594452 421.886206 163.238259 423.442351 171.329851 
C 424.998496 179.421442 424.731303 187.759104 422.660269 195.734457 
C 420.589236 203.709811 416.76599 211.124039 411.469504 217.436145 
L 453.939008 253.07229 
z
" style="fill: #1f77b4"/>
   </g>
   <g id="patch_15">
    <path d="M 421.444176 84.10669 
C 399.1683 72.148451 373.458684 68.1615 348.607277 72.811417 
C 323.75587 77.461334 301.227055 90.47412 284.781778 109.677427 
L 326.890889 145.738714 
C 335.113527 136.13706 346.377935 129.630667 358.803638 127.305708 
C 371.229342 124.98075 384.08415 126.974225 395.222088 132.953345 
L 421.444176 84.10669 
z
" style="fill: #ff7f0e"/>
   </g>
   <g id="patch_16">
    <path d="M 284.781778 109.677427 
C 277.198426 118.532581 271.058923 128.528612 266.589884 139.296558 
C 262.120845 150.064505 259.377941 161.470232 258.462413 173.092744 
L 313.731207 177.446372 
C 314.18897 171.635116 315.560423 165.932252 317.794942 160.548279 
C 320.029461 155.164306 323.099213 150.16629 326.890889 145.738714 
L 284.781778 109.677427 
z
" style="fill: #2ca02c"/>
   </g>
   <g id="patch_17">
    <path d="M 258.462413 173.092744 
C 257.899379 180.240394 258.030949 187.425835 258.855273 194.548082 
C 259.679598 201.670329 261.192797 208.69586 263.373605 215.52594 
L 316.186802 198.66297 
C 315.096399 195.24793 314.339799 191.735164 313.927637 188.174041 
C 313.515474 184.612917 313.44969 181.020197 313.731207 177.446372 
L 258.462413 173.092744 
z
" style="fill: #d62728"/>
   </g>
   <g id="patch_18">
    <path d="M 263.373605 215.52594 
C 264.207199 218.136675 265.137299 220.715608 266.161989 223.257423 
C 267.186679 225.799238 268.305255 228.30219 269.515412 230.761119 
L 319.257706 206.28056 
C 318.652628 205.051095 318.09334 203.799619 317.580995 202.528711 
C 317.068649 201.257804 316.603599 199.968338 316.186802 198.66297 
L 263.373605 215.52594 
z
" style="fill: #9467bd"/>
   </g>
   <g id="patch_19">
    <path d="M 269.515412 230.761119 
C 277.660337 247.310873 289.807675 261.569569 304.852941 272.24075 
C 319.898207 282.91193 337.371156 289.662063 355.683076 291.8774 
C 373.994996 294.092736 392.573541 291.704034 409.729474 284.928484 
C 426.885408 278.152935 442.082515 267.20231 453.939012 253.072285 
L 411.469506 217.436143 
C 405.541257 224.501155 397.942704 229.976467 389.364737 233.364242 
C 380.786771 236.752017 371.497498 237.946368 362.341538 236.8387 
C 353.185578 235.731032 344.449103 232.355965 336.92647 227.020375 
C 329.403837 221.684785 323.330168 214.555436 319.257706 206.28056 
L 269.515412 230.761119 
z
" style="fill: #8c564b"/>
   </g>
   <g id="matplotlib.axis_1"/>
   <g id="matplotlib.axis_2"/>
   <g id="text_7">
    <!-- 对 evenodd 算法简单实现的性能分析 -->
    <g transform="translate(270 37.2)scale(0.12 -0.12)">
     <defs>
      <path id="SimHei-5bf9" d="M 525 4250 
Q 900 4225 1400 4225 
L 2825 4225 
Q 2575 2625 2200 1750 
Q 2825 875 3125 400 
Q 2950 275 2725 75 
Q 2200 975 1950 1300 
Q 1650 775 1350 425 
Q 1050 75 600 -350 
Q 425 -125 200 -25 
Q 625 275 975 675 
Q 1325 1075 1650 1700 
Q 1050 2425 550 2900 
Q 700 3025 900 3225 
Q 1625 2425 1875 2150 
Q 2200 3050 2300 3825 
L 1400 3825 
Q 900 3825 525 3800 
L 525 4250 
z
M 2925 3700 
Q 3525 3675 3750 3675 
L 4825 3675 
L 4825 4425 
Q 4825 4750 4775 5125 
L 5350 5125 
Q 5325 4825 5325 4375 
L 5325 3675 
Q 5575 3675 6150 3700 
L 6150 3250 
Q 5575 3275 5325 3275 
L 5325 125 
Q 5350 -350 5012 -475 
Q 4675 -600 4250 -650 
Q 4175 -350 4025 -100 
Q 4575 -100 4712 -37 
Q 4850 25 4825 325 
L 4825 3275 
L 3775 3275 
Q 3550 3275 2925 3225 
L 2925 3700 
z
M 3450 2725 
Q 3875 1975 4175 1325 
Q 3850 1200 3700 1075 
Q 3475 1750 3050 2475 
Q 3225 2550 3450 2725 
z
" transform="scale(0.015625)"/>
      <path id="SimHei-76" d="M 2875 2925 
L 1825 75 
L 1275 75 
L 225 2925 
L 750 2925 
L 1525 750 
L 1575 750 
L 2350 2925 
L 2875 2925 
z
" transform="scale(0.015625)"/>
      <path id="SimHei-7b97" d="M 5175 3650 
Q 5150 3200 5150 2500 
Q 5150 1800 5175 1325 
L 4575 1325 
L 4575 875 
L 5250 875 
Q 5650 875 6150 900 
L 6150 475 
Q 5650 500 5250 500 
L 4575 500 
Q 4575 -75 4600 -625 
L 4050 -625 
Q 4075 -75 4075 500 
L 2650 500 
Q 2475 100 2125 -175 
Q 1775 -450 1075 -675 
Q 925 -425 700 -250 
Q 1250 -150 1600 37 
Q 1950 225 2125 500 
L 1225 500 
Q 800 500 300 475 
L 300 900 
Q 825 875 1225 875 
L 2200 875 
Q 2250 1075 2250 1325 
L 1250 1325 
Q 1275 1775 1275 2475 
Q 1275 3200 1250 3650 
L 5175 3650 
z
M 1825 5100 
Q 1625 4900 1475 4725 
L 2425 4725 
Q 2750 4725 3175 4750 
L 3175 4325 
Q 2750 4350 2200 4350 
Q 2250 4175 2350 3875 
Q 2075 3850 1825 3750 
Q 1750 4075 1675 4350 
L 1200 4350 
Q 1075 4125 775 3775 
Q 525 3925 250 4000 
Q 500 4225 762 4537 
Q 1025 4850 1275 5300 
Q 1500 5175 1825 5100 
z
M 4525 5100 
Q 4325 4950 4175 4725 
L 5225 4725 
Q 5500 4725 5950 4750 
L 5950 4325 
Q 5550 4350 4975 4350 
L 5175 3950 
Q 4925 3925 4650 3825 
Q 4575 4100 4500 4350 
L 3900 4350 
Q 3700 4025 3525 3775 
Q 3250 3950 3025 4000 
Q 3325 4300 3550 4612 
Q 3775 4925 3900 5275 
Q 4175 5175 4525 5100 
z
M 4650 1675 
L 4650 2000 
L 1775 2000 
L 1775 1675 
L 4650 1675 
z
M 4650 2350 
L 4650 2650 
L 1775 2650 
L 1775 2350 
L 4650 2350 
z
M 4650 3000 
L 4650 3300 
L 1775 3300 
L 1775 3000 
L 4650 3000 
z
M 4075 875 
L 4075 1325 
L 2725 1325 
Q 2725 1075 2700 875 
L 4075 875 
z
" transform="scale(0.015625)"/>
      <path id="SimHei-6cd5" d="M 6075 -300 
Q 5850 -425 5625 -625 
Q 5450 -300 5325 -125 
Q 4525 -175 3587 -262 
Q 2650 -350 2325 -450 
Q 2250 -150 2125 75 
Q 2450 175 2825 725 
Q 3200 1275 3500 2100 
L 2800 2100 
Q 2350 2100 1950 2075 
L 1950 2525 
Q 2350 2500 2825 2500 
L 3725 2500 
L 3725 3600 
L 3150 3600 
Q 2675 3600 2325 3575 
L 2325 4025 
Q 2725 4000 3125 4000 
L 3725 4000 
Q 3725 4700 3700 5150 
L 4250 5150 
Q 4225 4775 4225 4000 
L 4975 4000 
Q 5350 4000 5750 4025 
L 5750 3575 
Q 5350 3600 5025 3600 
L 4225 3600 
L 4225 2500 
L 5125 2500 
Q 5575 2500 6025 2525 
L 6025 2075 
Q 5575 2100 5125 2100 
L 3850 2100 
L 4100 1950 
Q 3950 1775 3625 1200 
Q 3300 625 2900 100 
Q 4000 150 5075 225 
Q 4775 675 4450 1025 
Q 4650 1175 4825 1350 
Q 5275 800 6075 -300 
z
M 300 -250 
Q 650 100 1012 625 
Q 1375 1150 1725 1725 
Q 1850 1500 2075 1375 
Q 1850 1075 1500 487 
Q 1150 -100 850 -625 
Q 650 -425 300 -250 
z
M 675 3425 
Q 1200 3100 1800 2650 
Q 1575 2500 1400 2250 
Q 925 2675 350 3050 
Q 525 3200 675 3425 
z
M 1050 4900 
Q 1550 4575 2100 4125 
Q 1900 3975 1725 3725 
Q 1250 4175 725 4525 
Q 900 4700 1050 4900 
z
" transform="scale(0.015625)"/>
      <path id="SimHei-7b80" d="M 4275 725 
Q 4275 500 4300 200 
L 2100 200 
Q 2125 525 2125 800 
L 2125 1850 
Q 2125 2150 2100 2375 
L 4300 2375 
Q 4275 2125 4275 1825 
L 4275 725 
z
M 5575 3200 
Q 5550 2850 5550 2350 
L 5550 25 
Q 5550 -450 5262 -537 
Q 4975 -625 4600 -675 
Q 4525 -400 4425 -125 
Q 4950 -150 5037 -100 
Q 5125 -50 5125 175 
L 5125 2825 
L 3325 2825 
Q 3200 2825 2525 2800 
L 2525 3225 
Q 2925 3200 3250 3200 
L 5575 3200 
z
M 5275 3625 
Q 5000 3550 4825 3450 
Q 4725 3800 4550 4225 
L 4100 4225 
Q 3825 3825 3425 3375 
Q 3150 3575 3025 3625 
Q 3550 4150 3712 4450 
Q 3875 4750 4025 5225 
Q 4300 5100 4550 5025 
Q 4425 4875 4275 4600 
L 5275 4600 
Q 5400 4600 5950 4625 
L 5950 4200 
Q 5275 4225 5000 4225 
Q 5100 4000 5275 3625 
z
M 3250 4250 
Q 2750 4275 2325 4275 
Q 2450 4075 2700 3650 
Q 2450 3550 2300 3450 
Q 2100 3900 1875 4275 
L 1625 4275 
Q 1150 3725 775 3400 
Q 625 3575 400 3725 
Q 950 4075 1237 4525 
Q 1525 4975 1625 5250 
Q 1875 5100 2125 5025 
Q 1975 4875 1825 4650 
L 2650 4650 
Q 2950 4650 3250 4675 
L 3250 4250 
z
M 900 -650 
Q 925 -25 925 325 
L 925 1875 
Q 925 2225 900 2775 
L 1375 2775 
Q 1350 2200 1350 1850 
L 1350 200 
Q 1350 25 1375 -650 
L 900 -650 
z
M 3850 575 
L 3850 1150 
L 2550 1150 
L 2550 575 
L 3850 575 
z
M 3850 1525 
L 3850 2025 
L 2550 2025 
L 2550 1525 
L 3850 1525 
z
M 2325 2850 
Q 2125 2725 1925 2525 
Q 1700 2900 1350 3300 
Q 1475 3400 1675 3600 
L 2325 2850 
z
" transform="scale(0.015625)"/>
      <path id="SimHei-5355" d="M 5275 4075 
L 5275 1525 
L 3400 1525 
L 3400 925 
L 5050 925 
Q 5600 925 6000 950 
L 6000 450 
Q 5575 475 5050 475 
L 3400 475 
Q 3400 -300 3425 -625 
L 2875 -625 
Q 2925 -300 2925 475 
L 1300 475 
Q 700 475 425 450 
L 425 950 
Q 675 925 1250 925 
L 2925 925 
L 2925 1525 
L 1125 1525 
Q 1150 1950 1150 2750 
Q 1150 3550 1125 4075 
L 3600 4075 
Q 3875 4650 4075 5250 
Q 4325 5125 4650 4975 
Q 4550 4850 4400 4587 
Q 4250 4325 4100 4075 
L 5275 4075 
z
M 4775 1925 
L 4775 2600 
L 3400 2600 
L 3400 1925 
L 4775 1925 
z
M 4775 3000 
L 4775 3650 
L 3400 3650 
L 3400 3000 
L 4775 3000 
z
M 2925 1925 
L 2925 2600 
L 1625 2600 
L 1625 1925 
L 2925 1925 
z
M 2925 3000 
L 2925 3650 
L 1625 3650 
L 1625 3000 
L 2925 3000 
z
M 2100 5225 
Q 2350 4950 2675 4350 
Q 2400 4225 2225 4125 
Q 1975 4675 1725 4975 
Q 1900 5075 2100 5225 
z
" transform="scale(0.015625)"/>
      <path id="SimHei-5b9e" d="M 4125 3500 
Q 4050 3200 4000 2675 
Q 3950 2150 3850 1550 
L 5025 1550 
Q 5475 1550 5975 1575 
L 5975 1100 
Q 5450 1125 5000 1125 
L 3725 1125 
Q 3500 625 3050 250 
Q 2600 -125 2000 -337 
Q 1400 -550 925 -675 
Q 825 -375 500 -200 
Q 1225 -125 2050 212 
Q 2875 550 3200 1125 
L 1425 1125 
Q 975 1125 425 1100 
L 425 1575 
Q 1000 1550 1425 1550 
L 3375 1550 
Q 3450 1975 3487 2462 
Q 3525 2950 3500 3650 
Q 3800 3550 4125 3500 
z
M 3250 5250 
Q 3450 4850 3600 4375 
L 5775 4375 
Q 5750 4100 5750 3825 
Q 5750 3575 5775 3275 
L 5200 3275 
L 5200 3975 
L 1225 3975 
L 1225 3225 
L 675 3225 
Q 700 3525 700 3800 
Q 700 4100 675 4375 
L 2975 4375 
Q 2900 4675 2700 5075 
Q 2900 5150 3250 5250 
z
M 4000 825 
Q 4550 525 5050 262 
Q 5550 0 5925 -225 
Q 5750 -425 5550 -650 
Q 5100 -325 4575 -37 
Q 4050 250 3675 400 
Q 3875 650 4000 825 
z
M 1175 2750 
Q 1600 2550 2350 2050 
Q 2250 1900 2050 1650 
Q 1350 2175 925 2350 
Q 1075 2500 1175 2750 
z
M 3150 2825 
Q 2975 2625 2850 2425 
Q 2050 3000 1675 3125 
Q 1800 3300 1950 3525 
L 3150 2825 
z
" transform="scale(0.015625)"/>
      <path id="SimHei-73b0" d="M 4650 3850 
Q 4550 3575 4512 2975 
Q 4475 2375 4350 1700 
L 4850 1700 
Q 4825 1450 4825 1025 
L 4825 225 
Q 4825 -150 4962 -175 
Q 5100 -200 5275 -187 
Q 5450 -175 5525 -12 
Q 5600 150 5625 575 
Q 5875 425 6175 375 
Q 6050 -150 5925 -337 
Q 5800 -525 5400 -575 
L 4900 -575 
Q 4350 -575 4350 -100 
L 4350 1650 
Q 4125 850 3700 312 
Q 3275 -225 2425 -675 
Q 2300 -475 2000 -325 
Q 2800 0 3175 387 
Q 3550 775 3775 1375 
Q 4000 1975 4037 2625 
Q 4075 3275 4050 3925 
Q 4375 3875 4650 3850 
z
M 1850 4625 
Q 2125 4625 2525 4650 
L 2525 4175 
Q 2125 4200 1675 4200 
L 1675 2825 
Q 2025 2825 2425 2850 
L 2425 2375 
Q 2025 2400 1675 2400 
L 1675 875 
Q 2100 975 2550 1125 
Q 2525 850 2525 650 
Q 1700 450 1200 275 
Q 700 100 450 -25 
Q 375 325 250 575 
Q 650 625 1225 750 
L 1225 2400 
Q 825 2400 450 2375 
L 450 2850 
Q 825 2825 1225 2825 
L 1225 4200 
Q 775 4200 425 4175 
L 425 4650 
Q 725 4625 1000 4625 
L 1850 4625 
z
M 5750 4875 
Q 5725 4475 5725 4075 
L 5725 2400 
Q 5725 1925 5750 1575 
L 5275 1575 
L 5275 4475 
L 3375 4475 
L 3375 1550 
L 2900 1550 
Q 2925 1975 2925 2500 
L 2925 3875 
Q 2925 4425 2900 4875 
L 5750 4875 
z
" transform="scale(0.015625)"/>
      <path id="SimHei-7684" d="M 2100 4975 
Q 1975 4750 1750 3950 
L 2875 3950 
Q 2850 3525 2850 2875 
L 2850 675 
Q 2850 300 2875 -400 
L 2375 -400 
L 2375 100 
L 1100 100 
L 1100 -450 
L 600 -450 
Q 625 350 625 550 
L 625 2850 
Q 625 3525 600 3950 
L 1325 3950 
Q 1450 4525 1525 5150 
Q 1875 5025 2100 4975 
z
M 5825 3075 
Q 5800 1550 5700 175 
Q 5650 -275 5225 -425 
Q 4800 -575 4275 -625 
Q 4250 -350 4050 -50 
Q 4550 -75 4837 -25 
Q 5125 25 5200 200 
Q 5275 375 5312 1225 
Q 5350 2075 5375 3600 
L 3925 3600 
Q 3725 3125 3350 2475 
Q 3175 2650 2925 2750 
Q 3150 3050 3350 3475 
Q 3550 3900 3700 4400 
Q 3850 4900 3875 5175 
Q 4225 5025 4475 4950 
Q 4350 4750 4262 4512 
Q 4175 4275 4075 4050 
L 5850 4050 
Q 5825 3525 5825 3075 
z
M 2375 525 
L 2375 1850 
L 1100 1850 
L 1100 525 
L 2375 525 
z
M 2375 2275 
L 2375 3525 
L 1100 3525 
L 1100 2275 
L 2375 2275 
z
M 4350 2050 
Q 4500 1750 4700 1275 
Q 4525 1200 4225 1025 
Q 4050 1500 3900 1837 
Q 3750 2175 3600 2400 
Q 3775 2500 4050 2650 
L 4350 2050 
z
" transform="scale(0.015625)"/>
      <path id="SimHei-6027" d="M 3450 4525 
Q 3325 4075 3275 3750 
L 4050 3750 
L 4050 4275 
Q 4050 4700 4025 5100 
L 4550 5100 
Q 4525 4700 4525 4275 
L 4525 3750 
L 5025 3750 
Q 5350 3750 5800 3775 
L 5800 3300 
Q 5350 3325 5025 3325 
L 4525 3325 
L 4525 2000 
L 4975 2000 
Q 5350 2000 5725 2025 
L 5725 1550 
Q 5350 1575 4975 1575 
L 4525 1575 
L 4525 25 
L 5200 25 
Q 5625 25 6025 50 
L 6025 -400 
Q 5625 -375 5200 -375 
L 3275 -375 
Q 2825 -375 2400 -400 
L 2400 50 
Q 2825 25 3250 25 
L 4050 25 
L 4050 1575 
L 3625 1575 
Q 3300 1575 2875 1550 
L 2875 2025 
Q 3200 2000 3625 2000 
L 4050 2000 
L 4050 3325 
L 3175 3325 
Q 3100 2950 2775 2225 
Q 2500 2375 2325 2400 
Q 2675 3125 2775 3650 
Q 2875 4175 2950 4650 
Q 3200 4575 3450 4525 
z
M 1700 5150 
Q 1675 4650 1675 4175 
L 1675 425 
Q 1675 -100 1700 -625 
L 1175 -625 
Q 1200 -100 1200 425 
L 1200 4175 
Q 1200 4700 1175 5150 
L 1700 5150 
z
M 975 3725 
Q 825 2675 700 2150 
Q 450 2200 250 2250 
Q 425 2900 525 3800 
Q 725 3775 975 3725 
z
M 2125 4025 
Q 2325 3625 2525 3000 
Q 2300 2925 2125 2825 
Q 1950 3375 1750 3850 
Q 1950 3950 2125 4025 
z
" transform="scale(0.015625)"/>
      <path id="SimHei-80fd" d="M 2025 -150 
Q 2475 -150 2525 -62 
Q 2575 25 2575 200 
L 2575 550 
L 1225 550 
L 1225 -625 
L 750 -625 
Q 775 -125 775 275 
L 775 1950 
Q 775 2400 750 2750 
L 3050 2750 
Q 3025 2375 3025 1925 
L 3025 -175 
Q 3000 -450 2800 -525 
Q 2600 -600 2225 -650 
Q 2175 -425 2025 -150 
z
M 5800 1625 
Q 5700 1600 5212 1375 
Q 4725 1150 4100 950 
L 4100 250 
Q 4100 -50 4375 -50 
L 5275 -50 
Q 5475 0 5550 575 
Q 5750 475 6050 375 
Q 5875 -425 5475 -425 
L 4125 -425 
Q 3650 -425 3650 50 
L 3650 1675 
Q 3650 2050 3625 2350 
L 4125 2350 
Q 4100 2050 4100 1700 
L 4100 1375 
Q 4350 1450 4762 1650 
Q 5175 1850 5425 2075 
Q 5650 1775 5800 1625 
z
M 4100 4100 
Q 4450 4250 4775 4412 
Q 5100 4575 5425 4825 
Q 5625 4575 5775 4400 
Q 5625 4350 5137 4112 
Q 4650 3875 4100 3700 
L 4100 3325 
Q 4100 3025 4450 3025 
L 5175 3025 
Q 5425 3025 5500 3675 
Q 5750 3550 6000 3450 
Q 5825 2650 5375 2650 
L 4250 2650 
Q 3650 2650 3650 3200 
L 3650 4475 
Q 3650 4775 3625 5125 
L 4125 5125 
Q 4100 4950 4100 4400 
L 4100 4100 
z
M 3025 3075 
Q 2950 3200 2825 3350 
Q 2000 3300 1450 3250 
Q 900 3200 625 3125 
Q 550 3425 450 3650 
Q 625 3725 987 4187 
Q 1350 4650 1575 5175 
Q 1700 5075 1850 5025 
Q 2000 4975 2175 4900 
Q 1975 4750 1762 4450 
Q 1550 4150 1075 3600 
Q 2125 3650 2625 3675 
Q 2325 4075 2200 4200 
Q 2375 4300 2600 4475 
Q 2800 4200 2987 3975 
Q 3175 3750 3475 3400 
Q 3200 3200 3025 3075 
z
M 2575 950 
L 2575 1475 
L 1225 1475 
L 1225 950 
L 2575 950 
z
M 2575 1875 
L 2575 2350 
L 1225 2350 
L 1225 1875 
L 2575 1875 
z
" transform="scale(0.015625)"/>
      <path id="SimHei-5206" d="M 1000 -650 
Q 825 -375 575 -225 
Q 975 -75 1300 137 
Q 1625 350 1875 662 
Q 2125 975 2250 1350 
Q 2375 1725 2425 2275 
Q 1850 2275 1500 2250 
L 1500 2775 
Q 1900 2750 2525 2750 
L 5025 2750 
Q 4975 2375 4950 2100 
L 4750 250 
Q 4700 -200 4350 -350 
Q 4000 -500 3575 -525 
Q 3550 -275 3325 50 
Q 3850 25 4037 87 
Q 4225 150 4275 525 
L 4450 2275 
L 2950 2275 
Q 2875 1625 2737 1187 
Q 2600 750 2350 425 
Q 2100 100 1750 -175 
Q 1400 -450 1000 -650 
z
M 3950 5175 
Q 4125 4650 4662 3975 
Q 5200 3300 6175 2800 
Q 5975 2625 5775 2275 
Q 5325 2600 4987 2887 
Q 4650 3175 4425 3425 
Q 4200 3675 3925 4137 
Q 3650 4600 3475 5000 
Q 3750 5075 3950 5175 
z
M 2700 4825 
Q 2475 4425 2325 4125 
Q 2175 3825 2025 3587 
Q 1875 3350 1575 2950 
Q 1275 2550 850 2125 
Q 625 2350 400 2475 
Q 900 2925 1187 3300 
Q 1475 3675 1737 4112 
Q 2000 4550 2200 5075 
Q 2400 4925 2700 4825 
z
" transform="scale(0.015625)"/>
      <path id="SimHei-6790" d="M 5900 4550 
Q 5575 4525 5087 4450 
Q 4600 4375 3725 4275 
L 3725 3075 
L 5400 3075 
Q 5725 3075 6150 3100 
L 6150 2650 
Q 5700 2675 5250 2675 
L 5250 350 
Q 5250 -100 5275 -475 
L 4750 -475 
Q 4775 -75 4775 375 
L 4775 2675 
L 3725 2675 
Q 3725 2175 3650 1637 
Q 3575 1100 3437 637 
Q 3300 175 2850 -500 
Q 2675 -300 2275 -150 
Q 2825 325 3050 1112 
Q 3275 1900 3262 3000 
Q 3250 4100 3225 4650 
Q 3975 4700 4562 4800 
Q 5150 4900 5500 5050 
Q 5675 4750 5900 4550 
z
M 1900 525 
Q 1900 200 1925 -525 
L 1400 -525 
Q 1425 25 1425 525 
L 1425 2250 
Q 1175 1625 600 800 
Q 425 1075 200 1225 
Q 650 1725 962 2387 
Q 1275 3050 1375 3425 
Q 925 3425 450 3400 
L 450 3850 
Q 925 3825 1425 3825 
L 1425 4450 
Q 1425 4775 1400 5125 
L 1950 5125 
Q 1900 4825 1900 4450 
L 1900 3825 
Q 2300 3825 2775 3850 
L 2775 3400 
Q 2300 3425 1900 3425 
L 1900 525 
z
M 2375 2750 
Q 2800 2050 2925 1800 
Q 2700 1700 2450 1550 
Q 2300 1900 1950 2525 
Q 2175 2625 2375 2750 
z
" transform="scale(0.015625)"/>
     </defs>
     <use xlink:href="#SimHei-5bf9"/>
     <use xlink:href="#SimHei-20" x="100"/>
     <use xlink:href="#SimHei-65" x="150"/>
     <use xlink:href="#SimHei-76" x="200"/>
     <use xlink:href="#SimHei-65" x="250"/>
     <use xlink:href="#SimHei-6e" x="300"/>
     <use xlink:href="#SimHei-6f" x="350"/>
     <use xlink:href="#SimHei-64" x="400"/>
     <use xlink:href="#SimHei-64" x="450"/>
     <use xlink:href="#SimHei-20" x="500"/>
     <use xlink:href="#SimHei-7b97" x="550"/>
     <use xlink:href="#SimHei-6cd5" x="650"/>
     <use xlink:href="#SimHei-7b80" x="750"/>
     <use xlink:href="#SimHei-5355" x="850"/>
     <use xlink:href="#SimHei-5b9e" x="950"/>
     <use xlink:href="#SimHei-73b0" x="1050"/>
     <use xlink:href="#SimHei-7684" x="1150"/>
     <use xlink:href="#SimHei-6027" x="1250"/>
     <use xlink:href="#SimHei-80fd" x="1350"/>
     <use xlink:href="#SimHei-5206" x="1450"/>
     <use xlink:href="#SimHei-6790" x="1550"/>
    </g>
   </g>
  </g>
 </g>
</svg>
